<svg width="5228" height="2278" viewBox="0 0 5228 2278" fill="none" xmlns="http://www.w3.org/2000/svg">
<rect width="2523.8" height="1262.2" rx="100" transform="matrix(0.9951 0.0988718 -0.0768091 0.997046 2723.95 336)" fill="#7BDFFF"/>
<path d="M3046.97 871.301L2998.01 771.627L2928.73 766.126L2921.75 879.411L2950.66 881.707C2955.98 882.129 2958.49 884.669 2958.21 889.327C2958.06 891.656 2956.99 895.582 2954.98 901.106L2953.74 905.02L2857.54 897.38C2856.33 895.278 2855.83 892.564 2856.04 889.237C2856.26 885.577 2857.63 882.343 2860.14 879.533L2893.78 878.192L2910.83 601.217L2881.93 598.921C2876.61 598.499 2874.09 595.959 2874.38 591.301C2874.52 588.972 2875.6 585.046 2877.61 579.522L2878.85 575.608L3009.94 586.019C3028.55 587.496 3044.15 591.744 3056.74 598.762C3069.35 605.447 3079.35 613.93 3086.73 624.212C3094.13 634.161 3099.32 644.77 3102.3 656.04C3105.3 666.977 3106.5 677.269 3105.91 686.918C3105.21 698.23 3101.98 710.009 3096.22 722.256C3090.81 734.196 3082.31 744.722 3070.73 753.832C3059.15 762.942 3044.44 768.628 3026.61 770.889L3075.81 866.57C3081.47 877.718 3086.68 885.32 3091.44 889.376C3096.22 893.098 3102.76 895.29 3111.07 895.949C3113.72 896.161 3116.55 896.385 3119.54 896.622C3122.88 896.554 3125.73 896.445 3128.07 896.297C3130.45 901.166 3131.56 907.44 3131.42 915.118C3119.88 918.214 3109.12 919.365 3099.15 918.574C3088.52 917.729 3079.09 913.637 3070.86 906.297C3062.65 898.624 3054.69 886.959 3046.97 871.301ZM2930.14 743.169L2999.92 748.711C3022.19 750.479 3040.21 745.223 3053.99 732.944C3067.79 720.332 3075.29 704.212 3076.5 684.582C3077.71 664.953 3072.24 647.969 3060.1 633.632C3047.98 618.962 3030.79 610.743 3008.53 608.975L2938.75 603.434L2930.14 743.169ZM3356.25 806.094L3188.78 792.795L3188.44 798.284C3186.45 830.557 3193.17 857.001 3208.6 877.617C3224.37 897.927 3246.39 909.203 3274.63 911.446C3287.59 912.475 3300.99 911.701 3314.84 909.123C3329.02 906.572 3340.58 903.31 3349.51 899.339C3352 902.211 3353.81 905.364 3354.93 908.797C3356.08 911.896 3356.71 915.123 3356.84 918.477C3328.3 931.923 3298.91 937.446 3268.67 935.045C3245.41 933.198 3225.47 926.265 3208.84 914.246C3192.24 901.895 3179.72 885.688 3171.27 865.626C3162.84 845.231 3159.43 822.058 3161.02 796.107C3162.64 769.824 3168.53 747.39 3178.69 728.806C3189.2 709.915 3203.26 695.819 3220.86 686.519C3238.47 677.218 3258.73 673.478 3281.66 675.299C3342.8 680.154 3371.13 719.013 3366.64 791.875C3363.63 797.32 3360.17 802.06 3356.25 806.094ZM3192.09 771.494L3340.62 783.289C3343.94 729.391 3323.84 700.714 3280.31 697.257C3258.38 695.515 3239.48 701.37 3223.63 714.822C3208.11 728.3 3197.59 747.19 3192.09 771.494ZM3588.04 783.881L3579.83 730.071C3565.89 723.28 3549.62 719.146 3531.01 717.668C3513.73 716.296 3498.32 719.753 3484.79 728.04C3471.28 735.993 3460.38 747.665 3452.08 763.054C3443.79 778.443 3438.99 796.784 3437.68 818.077C3435.67 850.682 3442.39 877.127 3457.83 897.41C3473.28 917.694 3494.96 928.944 3522.87 931.16C3534.5 932.084 3546.71 931.716 3559.5 930.057C3572.3 928.398 3583.15 925.583 3592.08 921.611C3594.24 924.458 3595.89 927.597 3597.01 931.03C3598.15 934.13 3598.96 937.37 3599.42 940.749C3587.06 946.121 3573.8 950.082 3559.62 952.634C3545.44 955.185 3531.2 955.893 3516.91 954.759C3493.65 952.911 3473.71 945.979 3457.09 933.96C3440.48 921.608 3427.96 905.402 3419.51 885.34C3411.08 864.945 3407.67 841.772 3409.27 815.821C3410.86 789.87 3417.07 767.629 3427.9 749.098C3438.74 730.233 3452.97 716.151 3470.57 706.85C3488.52 697.243 3509.13 693.363 3532.39 695.211C3543.69 696.108 3555.57 698.389 3568.03 702.053C3580.52 705.385 3590.79 709.376 3598.85 714.029C3602.24 718.644 3605.09 723.885 3607.4 729.752L3604.89 786.724C3602.17 787.511 3599.65 787.812 3597.32 787.627C3594 787.363 3590.91 786.115 3588.04 783.881ZM3753.84 951.508C3771.12 952.88 3786.51 949.59 3800.03 941.636C3813.87 933.708 3824.78 921.87 3832.77 906.122C3841.08 890.4 3845.89 871.893 3847.2 850.6C3848.51 829.307 3846.02 810.219 3839.71 793.336C3833.74 776.479 3824.38 763.031 3811.64 752.993C3799.23 742.981 3784.39 737.289 3767.11 735.916C3749.83 734.544 3734.27 737.822 3720.43 745.749C3706.92 753.703 3696 765.541 3687.69 781.263C3679.71 797.011 3675.06 815.532 3673.75 836.825C3672.44 858.118 3674.77 877.193 3680.74 894.049C3687.05 910.932 3696.41 924.38 3708.81 934.392C3721.22 944.404 3736.23 950.11 3753.84 951.508ZM3752.49 973.467C3729.23 971.619 3709.29 964.687 3692.66 952.668C3676.39 940.343 3664.03 924.149 3655.58 904.087C3647.16 883.692 3643.74 860.52 3645.34 834.569C3646.94 808.618 3653.15 786.377 3663.97 767.845C3674.82 748.981 3689.04 734.899 3706.64 725.598C3724.6 715.991 3745.21 712.111 3768.47 713.958C3791.73 715.805 3811.49 722.891 3827.76 735.216C3844.39 747.235 3856.91 763.442 3865.34 783.837C3873.79 803.899 3877.21 826.905 3875.61 852.856C3874.02 878.807 3867.79 901.214 3856.95 920.079C3846.13 938.61 3831.74 952.679 3813.78 962.286C3796.18 971.587 3775.75 975.314 3752.49 973.467ZM4027.36 990.28L3911.22 981.057C3910.39 978.317 3910.03 975.948 3910.16 973.952C3910.32 971.29 3911.51 968.209 3913.73 964.707L3947.87 963.407L3960.53 757.796L3922.65 754.788C3921.8 752.38 3921.44 750.011 3921.58 747.682C3921.77 744.688 3922.96 741.606 3925.16 738.438L3975.09 732.874C3980.55 736.317 3984.98 740.346 3988.37 744.962L3978.14 805.332C3988.46 784.086 4002 767.609 4018.75 755.9C4035.52 743.858 4053.37 738.59 4072.31 740.094C4075.97 740.384 4080.1 741.047 4084.71 742.081C4089.67 742.81 4094.12 743.832 4098.05 745.146C4101.43 749.762 4104.28 755.003 4106.59 760.87L4104.24 815.346C4101.85 816.16 4099.33 816.461 4096.67 816.25C4093.35 815.986 4090.25 814.737 4087.39 812.503L4079.4 763.224C4078.09 762.786 4076.77 762.514 4075.45 762.408C4074.45 762.329 4073.45 762.25 4072.45 762.171C4058.17 761.036 4044.24 764.945 4030.66 773.897C4017.11 782.516 4005.69 794.481 3996.4 809.791C3987.46 824.794 3982.46 840.947 3981.39 858.247L3974.85 964.546L4023.69 968.425C4029.01 968.847 4031.52 971.387 4031.24 976.045C4031.11 978.041 4030.23 981.482 4028.6 986.367L4027.36 990.28ZM4374.57 1010.83L4324.64 1016.4C4319.18 1012.95 4314.75 1008.92 4311.36 1004.31L4317.86 955.679C4308.06 973.957 4294.66 988.105 4277.69 998.124C4260.71 1008.14 4242.42 1012.37 4222.81 1010.82C4203.21 1009.26 4186.25 1002.56 4171.96 990.731C4157.68 978.564 4146.81 962.656 4139.33 943.005C4132.22 923.049 4129.42 900.594 4130.96 875.642C4132.6 849.025 4138.84 826.285 4149.69 807.421C4160.55 788.224 4175.13 773.835 4193.42 764.254C4211.7 754.674 4232.64 750.82 4256.23 752.694C4282.15 754.752 4305.05 765.263 4324.92 784.226L4329.99 701.882L4289.61 698.676C4288.76 696.267 4288.4 693.899 4288.55 691.57C4288.73 688.576 4289.92 685.494 4292.12 682.325L4344.54 676.96C4350.01 680.403 4354.43 684.432 4357.82 689.048L4339.2 991.475L4377.08 994.483C4377.94 996.891 4378.29 999.26 4378.15 1001.59C4377.96 1004.58 4376.77 1007.66 4374.57 1010.83ZM4318.03 896.014L4323.35 809.678C4302.27 788.613 4279.44 777.104 4254.85 775.151C4227.6 772.987 4205.4 781.087 4188.24 799.45C4171.08 817.813 4161.46 843.962 4159.37 877.898C4158.1 898.525 4160.13 917.075 4165.46 933.546C4170.81 949.684 4178.69 962.68 4189.11 972.534C4199.52 982.388 4212.03 987.895 4226.66 989.056C4241.94 990.27 4256.34 986.9 4269.85 978.947C4283.38 970.66 4294.43 959.334 4303 944.97C4311.91 930.299 4316.93 913.98 4318.03 896.014ZM4697.07 1043.47L4551.03 1031.87C4549.82 1029.77 4549.32 1027.05 4549.53 1023.72C4549.75 1020.06 4551.12 1016.83 4553.63 1014.02L4617.18 1015.05L4633.53 749.557L4565.37 782.76C4561 777.733 4557.88 771.467 4556.01 763.963L4646.74 713.997C4649.68 714.9 4652.61 716.136 4655.52 717.704C4658.45 718.94 4661.03 720.482 4663.25 722.33L4645.15 1016.27L4694 1020.15C4699.32 1020.57 4701.83 1023.11 4701.54 1027.77C4701.4 1030.1 4700.32 1034.03 4698.31 1039.55L4697.07 1043.47ZM4866.34 1038.35C4883.29 1039.7 4897.65 1036.83 4909.44 1029.74C4921.59 1022.35 4931.57 1012.1 4939.38 999.018C4947.22 985.599 4953.15 970.69 4957.16 954.293C4961.53 937.589 4964.26 920.42 4965.34 902.787C4966.41 885.486 4965.79 868.386 4963.49 851.487C4961.55 834.282 4957.51 818.582 4951.37 804.387C4945.25 789.859 4936.62 778.141 4925.48 769.232C4914.7 760.018 4900.83 754.737 4883.88 753.392C4866.94 752.046 4852.39 755.07 4840.25 762.464C4828.46 769.552 4818.65 779.805 4810.81 793.224C4802.99 806.311 4796.9 821.206 4792.53 837.91C4788.52 854.308 4785.98 871.157 4784.91 888.458C4783.83 906.091 4784.26 923.51 4786.2 940.716C4788.5 957.615 4792.71 973.328 4798.83 987.856C4804.96 1002.05 4813.43 1013.76 4824.21 1022.97C4835.35 1031.88 4849.39 1037.01 4866.34 1038.35ZM4864.89 1061.81C4842.63 1060.04 4824.15 1053.72 4809.46 1042.86C4794.79 1031.67 4783.3 1017.72 4774.98 1001.01C4766.68 983.965 4760.97 965.458 4757.86 945.486C4755.08 925.54 4754.3 905.752 4755.5 886.122C4756.71 866.493 4759.9 847.188 4765.08 828.208C4770.61 808.922 4778.52 791.663 4788.8 776.432C4799.11 760.868 4812.21 748.869 4828.08 740.435C4843.98 731.668 4863.07 728.168 4885.33 729.936C4907.59 731.704 4926.06 738.186 4940.73 749.38C4955.42 760.243 4966.92 774.195 4975.22 791.236C4983.54 807.944 4989.09 826.272 4991.87 846.218C4995 865.858 4995.96 885.493 4994.75 905.122C4993.54 924.752 4990.17 944.209 4984.65 963.496C4979.45 982.809 4971.7 1000.25 4961.39 1015.81C4951.1 1031.04 4938.01 1043.04 4922.11 1051.81C4906.23 1060.24 4887.16 1063.58 4864.89 1061.81Z" fill="#2F5F5F"/>
<path d="M2869.22 1287.54C2868.61 1297.41 2865.45 1305.57 2859.74 1312.02C2854.04 1318.39 2847.21 1322.52 2839.27 1324.41C2842.76 1325.98 2845.66 1328.54 2847.95 1332.11C2850.32 1335.6 2852.13 1339.52 2853.37 1343.86L2861.25 1369.71C2862.56 1374.06 2863.86 1377.43 2865.15 1379.83C2866.51 1382.24 2868.11 1384.27 2869.94 1385.93C2868.3 1388.1 2865.94 1389.67 2862.87 1390.65C2859.86 1391.63 2856.93 1392.01 2854.08 1391.79C2849.79 1391.45 2846.72 1390.02 2844.86 1387.5C2843.01 1384.98 2841.36 1381.36 2839.93 1376.65L2831.01 1346.72C2829.52 1341.64 2827.38 1337.34 2824.59 1333.81C2821.79 1330.21 2817.07 1328.14 2810.43 1327.62L2792.96 1326.23L2789.33 1385.13C2787.53 1385.35 2785.58 1385.41 2783.51 1385.32C2781.5 1385.3 2779.6 1385.22 2777.82 1385.08C2776.17 1384.95 2774.28 1384.73 2772.15 1384.42C2770.08 1384.18 2768.24 1383.82 2766.62 1383.33L2775.57 1237.94L2777.04 1236.77C2785.12 1237.26 2793.03 1237.75 2800.75 1238.22C2808.48 1238.62 2815.99 1239.1 2823.27 1239.68C2838.13 1240.86 2849.73 1245.56 2858.05 1253.77C2866.38 1261.97 2870.1 1273.23 2869.22 1287.54ZM2797.31 1255.63L2794.09 1307.99C2798.24 1308.17 2802.49 1308.4 2806.86 1308.68C2811.22 1308.95 2814.87 1309.21 2817.79 1309.44C2824.8 1310 2830.27 1309.14 2834.21 1306.86C2838.16 1304.59 2840.97 1301.54 2842.64 1297.72C2844.31 1293.83 2845.28 1289.81 2845.53 1285.66C2845.8 1281.29 2845.34 1277.09 2844.16 1273.04C2842.97 1268.99 2840.56 1265.57 2836.93 1262.76C2833.3 1259.96 2827.98 1258.28 2820.98 1257.72C2817.91 1257.48 2814.08 1257.18 2809.51 1256.81C2805.02 1256.38 2800.95 1255.99 2797.31 1255.63ZM2966.1 1389.79C2960.73 1393.03 2954.44 1395.48 2947.23 1397.13C2940.02 1398.79 2932.7 1399.32 2925.27 1398.73C2916.77 1398.06 2909.75 1395.99 2904.22 1392.53C2898.7 1389 2894.41 1384.53 2891.37 1379.11C2888.34 1373.62 2886.31 1367.5 2885.29 1360.73C2884.28 1353.89 2883.99 1346.86 2884.44 1339.64C2885.09 1328.98 2887.32 1319.56 2891.13 1311.38C2895.01 1303.21 2900.38 1296.95 2907.25 1292.61C2914.2 1288.27 2922.63 1286.5 2932.56 1287.29C2941.85 1288.02 2949.51 1290.68 2955.55 1295.26C2961.66 1299.84 2966.1 1305.73 2968.89 1312.92C2971.68 1320.04 2972.82 1327.86 2972.29 1336.37C2972.08 1339.81 2971.76 1342.76 2971.32 1345.24C2970.95 1347.66 2970.39 1350.31 2969.64 1353.2L2906.95 1348.22C2906.83 1357.2 2908.34 1364.72 2911.49 1370.79C2914.63 1376.86 2920.7 1380.26 2929.7 1380.97C2935.06 1381.4 2940.29 1381.02 2945.39 1379.84C2950.49 1378.67 2955.39 1377.12 2960.1 1375.19C2961.78 1377.05 2963.15 1379.39 2964.2 1382.2C2965.31 1385.02 2965.95 1387.55 2966.1 1389.79ZM2931.56 1303.6C2924.7 1303.05 2919.29 1305.32 2915.31 1310.39C2911.41 1315.47 2908.95 1322.75 2907.94 1332.23L2951.02 1335.65L2951.19 1332.86C2951.65 1325.35 2950.41 1318.75 2947.45 1313.05C2944.5 1307.35 2939.2 1304.2 2931.56 1303.6ZM3055.79 1340.95C3056.22 1336.32 3056.05 1331.96 3055.3 1327.87C3054.62 1323.72 3052.97 1320.28 3050.34 1317.56C3047.71 1314.76 3043.79 1313.15 3038.57 1312.74C3031.78 1312.2 3026.29 1315.07 3022.1 1321.35C3017.98 1327.64 3015.52 1337.33 3014.71 1350.42C3013.92 1363.29 3015.45 1372.87 3019.3 1379.14C3023.15 1385.34 3028.94 1388.74 3036.65 1389.36C3041.51 1389.74 3046.19 1389 3050.68 1387.13C3055.18 1385.19 3059.41 1382.97 3063.37 1380.48C3065.22 1381.85 3067 1383.93 3068.69 1386.73C3070.46 1389.45 3071.52 1392.05 3071.87 1394.53C3066.72 1398.86 3060.74 1402.23 3053.91 1404.64C3047.09 1406.97 3039.86 1407.83 3032.21 1407.23C3022 1406.41 3013.8 1403.21 3007.61 1397.62C3001.49 1392.03 2997.15 1384.93 2994.6 1376.31C2992.11 1367.71 2991.17 1358.47 2991.78 1348.59C2992.6 1335.36 2995.4 1324.77 3000.2 1316.81C3005.07 1308.86 3011.05 1303.22 3018.15 1299.9C3025.24 1296.59 3032.58 1295.23 3040.15 1295.83C3048.87 1296.52 3055.98 1298.78 3061.49 1302.59C3067 1306.34 3071.03 1310.83 3073.58 1316.06C3076.13 1321.22 3077.26 1326.27 3076.95 1331.21C3076.72 1335 3075.64 1337.93 3073.72 1340.01C3071.8 1342.08 3068.87 1342.96 3064.94 1342.65C3061.87 1342.41 3058.82 1341.84 3055.79 1340.95ZM3184.04 1363.22C3183.36 1374.23 3181.01 1383.79 3177 1391.88C3172.98 1399.97 3167.4 1406.1 3160.25 1410.28C3153.1 1414.45 3144.42 1416.14 3134.2 1415.33C3124.06 1414.52 3115.7 1411.48 3109.13 1406.22C3102.57 1400.88 3097.79 1393.89 3094.81 1385.24C3091.9 1376.53 3090.78 1366.74 3091.45 1355.86C3092.12 1344.99 3094.46 1335.51 3098.48 1327.42C3102.5 1319.25 3108.08 1313.08 3115.23 1308.91C3122.38 1304.73 3130.99 1303.04 3141.06 1303.84C3151.35 1304.66 3159.78 1307.74 3166.34 1313.08C3172.91 1318.34 3177.65 1325.33 3180.56 1334.04C3183.54 1342.69 3184.7 1352.41 3184.04 1363.22ZM3114.27 1357.68C3113.86 1364.4 3114.15 1370.78 3115.14 1376.83C3116.14 1382.8 3118.24 1387.78 3121.44 1391.78C3124.64 1395.7 3129.31 1397.9 3135.46 1398.39C3141.53 1398.87 3146.36 1397.42 3149.94 1394.04C3153.6 1390.59 3156.29 1385.99 3158.01 1380.23C3159.73 1374.4 3160.8 1368.13 3161.21 1361.4C3161.62 1354.82 3161.32 1348.51 3160.33 1342.46C3159.34 1336.42 3157.24 1331.4 3154.04 1327.41C3150.91 1323.42 3146.31 1321.19 3140.24 1320.71C3134.1 1320.22 3129.2 1321.7 3125.54 1325.15C3121.88 1328.59 3119.19 1333.23 3117.47 1339.06C3115.74 1344.89 3114.68 1351.09 3114.27 1357.68ZM3206.71 1322.1C3207.34 1320.14 3208.51 1318.04 3210.22 1315.81C3211.94 1313.57 3213.69 1311.95 3215.48 1310.94C3220.55 1312.49 3224.59 1315.04 3227.6 1318.59C3230.69 1322.14 3232.83 1326.48 3234.02 1331.6C3236.85 1326.37 3240.63 1322.14 3245.35 1318.92C3250.08 1315.63 3256.01 1314.27 3263.16 1314.83C3265.09 1314.99 3266.94 1315.24 3268.71 1315.6C3270.48 1315.95 3272.39 1316.39 3274.44 1316.92C3274.26 1319.92 3273.61 1323.39 3272.51 1327.33C3271.48 1331.2 3269.91 1334.56 3267.8 1337.41C3266.39 1336.94 3264.94 1336.61 3263.44 1336.42C3262.02 1336.16 3260.6 1335.94 3259.18 1335.76C3253.39 1335.3 3248.54 1336.57 3244.62 1339.56C3240.78 1342.49 3237.62 1346.05 3235.13 1350.24L3230.82 1420.2C3227.79 1420.53 3224.09 1420.52 3219.73 1420.18C3215.45 1419.84 3211.79 1419.26 3208.75 1418.44L3213.28 1344.84C3213.63 1339.11 3213.07 1334.36 3211.58 1330.58C3210.09 1326.79 3208.46 1323.97 3206.71 1322.1ZM3279.74 1372.11C3280.52 1359.38 3283.17 1349.02 3287.68 1341.04C3292.2 1333.06 3297.72 1327.32 3304.25 1323.81C3310.79 1320.23 3317.49 1318.72 3324.35 1319.26C3328.85 1319.62 3333.06 1320.64 3336.97 1322.31C3340.89 1323.92 3344.61 1325.9 3348.13 1328.27L3351.56 1272.58L3353.04 1271.3L3361.4 1271.96C3366.04 1272.33 3369.11 1273.72 3370.61 1276.14C3372.19 1278.5 3372.83 1282.14 3372.53 1287.08L3365.54 1400.6C3365.28 1404.74 3365.43 1408.67 3365.99 1412.38C3366.63 1416.1 3368.06 1419.09 3370.29 1421.35C3369.59 1423.31 3368.35 1425.37 3366.57 1427.53C3364.86 1429.62 3363.08 1431.17 3361.22 1432.17C3356.99 1430.97 3353.59 1429.08 3351.02 1426.51C3348.45 1423.93 3346.55 1420.9 3345.33 1417.43C3341.43 1421.29 3336.72 1424.4 3331.19 1426.76C3325.73 1429.13 3319.75 1430.06 3313.25 1429.54C3305.1 1428.9 3298.42 1426.07 3293.2 1421.05C3288.06 1415.97 3284.35 1409.24 3282.06 1400.87C3279.85 1392.43 3279.08 1382.84 3279.74 1372.11ZM3302.35 1374.01C3301.56 1386.82 3302.92 1396.16 3306.43 1402.05C3309.95 1407.93 3314.31 1411.08 3319.53 1411.5C3323.32 1411.8 3327.38 1411.01 3331.74 1409.12C3336.16 1407.25 3340.16 1404.11 3343.73 1399.73L3346.99 1346.72C3343.91 1344.32 3340.59 1342.22 3337.04 1340.43C3333.56 1338.65 3329.97 1337.61 3326.25 1337.31C3320.25 1336.83 3314.95 1339.58 3310.34 1345.54C3305.82 1351.43 3303.15 1360.92 3302.35 1374.01ZM3440.48 1384.88C3441.27 1372.14 3443.92 1361.79 3448.43 1353.81C3452.94 1345.83 3458.46 1340.08 3465 1336.58C3471.53 1333 3478.23 1331.48 3485.09 1332.03C3489.59 1332.38 3493.8 1333.4 3497.72 1335.08C3501.64 1336.68 3505.36 1338.67 3508.87 1341.03L3512.3 1285.34L3513.78 1284.06L3522.14 1284.72C3526.78 1285.09 3529.86 1286.49 3531.36 1288.91C3532.94 1291.26 3533.57 1294.91 3533.27 1299.84L3526.28 1413.36C3526.02 1417.51 3526.18 1421.44 3526.74 1425.15C3527.37 1428.87 3528.8 1431.85 3531.03 1434.12C3530.34 1436.07 3529.1 1438.13 3527.31 1440.29C3525.61 1442.38 3523.82 1443.93 3521.97 1444.93C3517.73 1443.73 3514.33 1441.85 3511.76 1439.27C3509.19 1436.69 3507.3 1433.67 3506.08 1430.19C3502.18 1434.05 3497.46 1437.16 3491.93 1439.53C3486.47 1441.9 3480.49 1442.83 3473.99 1442.31C3465.85 1441.66 3459.17 1438.83 3453.95 1433.82C3448.8 1428.74 3445.09 1422.01 3442.81 1413.63C3440.6 1405.19 3439.82 1395.6 3440.48 1384.88ZM3463.09 1386.78C3462.3 1399.58 3463.66 1408.93 3467.18 1414.81C3470.69 1420.7 3475.06 1423.85 3480.27 1424.26C3484.06 1424.56 3488.13 1423.77 3492.48 1421.89C3496.9 1420.01 3500.9 1416.88 3504.47 1412.49L3507.74 1359.49C3504.65 1357.09 3501.34 1354.99 3497.79 1353.2C3494.31 1351.41 3490.71 1350.37 3486.99 1350.08C3480.99 1349.6 3475.69 1352.34 3471.09 1358.3C3466.56 1364.2 3463.9 1373.69 3463.09 1386.78ZM3552.62 1416.75C3553.12 1408.59 3555.32 1402.05 3559.21 1397.11C3563.18 1392.18 3568.31 1388.7 3574.61 1386.69C3580.98 1384.6 3588.03 1383.87 3595.74 1384.48C3598.74 1384.72 3602.02 1385.09 3605.58 1385.59C3609.22 1386.02 3612.81 1386.63 3616.35 1387.41L3616.86 1379.15C3617.27 1372.43 3616.03 1367.48 3613.14 1364.3C3610.25 1361.12 3606.05 1359.32 3600.55 1358.88C3595.12 1358.45 3589.46 1358.82 3583.57 1360.01C3577.76 1361.13 3572 1362.58 3566.29 1364.35C3564.62 1362.42 3563.27 1359.87 3562.24 1356.7C3561.22 1353.46 3560.73 1350.4 3560.76 1347.52C3566.99 1345.43 3574.24 1343.71 3582.51 1342.35C3590.85 1341 3598.66 1340.61 3605.95 1341.19C3616.45 1342.03 3624.74 1345.63 3630.8 1352.01C3636.87 1358.38 3639.53 1367.72 3638.77 1380.03L3636.06 1424.02C3635.81 1428.03 3635.95 1431.59 3636.48 1434.73C3637.08 1437.79 3638.56 1440.5 3640.93 1442.84C3640.17 1444.8 3638.93 1446.85 3637.21 1449.02C3635.51 1451.11 3633.72 1452.66 3631.87 1453.66C3627.49 1452.45 3623.98 1450.52 3621.35 1447.87C3618.78 1445.22 3616.89 1442.19 3615.66 1438.79C3611.57 1442.2 3606.72 1445.23 3601.1 1447.88C3595.49 1450.45 3589.18 1451.46 3582.18 1450.9C3575.11 1450.34 3569.31 1448.3 3564.79 1444.78C3560.34 1441.26 3557.12 1436.98 3555.13 1431.93C3553.15 1426.89 3552.31 1421.83 3552.62 1416.75ZM3574.68 1416.99C3574.41 1421.35 3575.43 1425.17 3577.75 1428.45C3580.06 1431.65 3583.54 1433.43 3588.18 1433.8C3592.19 1434.12 3596.5 1433.35 3601.14 1431.49C3605.78 1429.63 3610.12 1426.7 3614.17 1422.71L3615.42 1402.43C3612.23 1401.82 3608.96 1401.31 3605.61 1400.9C3602.33 1400.5 3599.19 1400.17 3596.19 1399.94C3589.69 1399.42 3584.55 1400.67 3580.78 1403.67C3577.08 1406.68 3575.04 1411.12 3574.68 1416.99ZM3676.21 1330.28C3676.51 1325.34 3677.55 1321.83 3679.33 1319.74C3681.12 1317.58 3684.36 1316.69 3689.08 1317.07L3697.44 1317.73L3698.64 1319.23L3696.69 1350.88L3723.29 1352.67C3723.76 1355.51 3723.91 1358.22 3723.75 1360.79C3723.57 1363.72 3723.08 1366.45 3722.28 1368.98L3695.73 1366.54L3691.77 1430.71C3691.6 1433.57 3692.14 1435.91 3693.39 1437.74C3694.64 1439.49 3696.88 1440.49 3700.09 1440.75L3714.78 1441.92C3715.79 1445.3 3716.17 1449.07 3715.91 1453.22C3715.86 1454.08 3715.77 1454.93 3715.64 1455.79C3715.6 1456.57 3715.44 1457.31 3715.18 1458.01C3711.59 1458.16 3707.74 1458.21 3703.65 1458.18C3699.56 1458.21 3695.4 1458.06 3691.19 1457.72C3676.04 1456.52 3668.92 1448.55 3669.83 1433.82L3674.07 1364.93L3658.41 1363.91C3657.93 1361.28 3657.78 1358.5 3657.96 1355.57C3658.12 1352.99 3658.6 1350.33 3659.42 1347.6L3675.05 1349.05L3676.21 1330.28ZM3731.37 1430.94C3731.87 1422.79 3734.07 1416.24 3737.96 1411.3C3741.92 1406.37 3747.06 1402.9 3753.35 1400.88C3759.73 1398.8 3766.77 1398.06 3774.49 1398.68C3777.49 1398.92 3780.77 1399.28 3784.33 1399.78C3787.96 1400.21 3791.55 1400.82 3795.09 1401.61L3795.6 1393.35C3796.01 1386.62 3794.78 1381.67 3791.88 1378.49C3788.99 1375.32 3784.8 1373.51 3779.3 1373.07C3773.87 1372.64 3768.21 1373.02 3762.32 1374.21C3756.51 1375.33 3750.75 1376.77 3745.04 1378.55C3743.36 1376.62 3742.01 1374.07 3740.99 1370.89C3739.96 1367.65 3739.47 1364.59 3739.5 1361.72C3745.74 1359.63 3752.98 1357.9 3761.25 1356.55C3769.59 1355.2 3777.4 1354.81 3784.69 1355.39C3795.19 1356.22 3803.48 1359.83 3809.55 1366.2C3815.62 1372.58 3818.27 1381.92 3817.51 1394.22L3814.81 1438.21C3814.56 1442.22 3814.7 1445.79 3815.22 1448.92C3815.82 1451.99 3817.31 1454.69 3819.68 1457.04C3818.91 1458.99 3817.67 1461.05 3815.96 1463.21C3814.25 1465.31 3812.47 1466.85 3810.61 1467.86C3806.23 1466.65 3802.73 1464.71 3800.09 1462.06C3797.53 1459.41 3795.63 1456.39 3794.4 1452.98C3790.32 1456.4 3785.46 1459.43 3779.85 1462.07C3774.23 1464.64 3767.92 1465.65 3760.92 1465.1C3753.85 1464.53 3748.05 1462.49 3743.53 1458.97C3739.08 1455.45 3735.86 1451.17 3733.88 1446.13C3731.89 1441.08 3731.05 1436.02 3731.37 1430.94ZM3753.43 1431.18C3753.16 1435.55 3754.18 1439.37 3756.49 1442.64C3758.81 1445.84 3762.28 1447.63 3766.93 1448C3770.93 1448.32 3775.25 1447.54 3779.89 1445.68C3784.52 1443.82 3788.87 1440.9 3792.92 1436.91L3794.17 1416.63C3790.97 1416.02 3787.7 1415.5 3784.35 1415.09C3781.08 1414.69 3777.94 1414.37 3774.94 1414.13C3768.44 1413.61 3763.3 1414.86 3759.52 1417.87C3755.82 1420.88 3753.79 1425.32 3753.43 1431.18ZM3945.63 1473.62C3941.82 1484.24 3937.79 1493.12 3933.55 1500.26C3929.37 1507.41 3924.24 1512.68 3918.14 1516.07C3912.05 1519.47 3904.25 1520.79 3894.75 1520.04C3891.39 1519.77 3887.7 1519.08 3883.67 1517.97C3879.72 1516.94 3876.66 1515.94 3874.49 1514.98C3874.43 1512.39 3874.97 1509.55 3876.09 1506.48C3877.28 1503.41 3878.65 1501.08 3880.18 1499.47C3881.93 1500.19 3884.29 1500.95 3887.26 1501.76C3890.22 1502.57 3893.1 1503.09 3895.88 1503.31C3903.1 1503.88 3908.71 1501.92 3912.72 1497.42C3916.8 1492.93 3920.31 1486.74 3923.23 1478.85L3924.14 1476.33C3919.72 1475.84 3916.24 1474.7 3913.69 1472.92C3911.15 1471.06 3909.33 1467.93 3908.24 1463.53L3885.94 1367.53C3891.01 1365.63 3895.54 1364.84 3899.54 1365.16C3902.19 1365.37 3904.39 1366.26 3906.16 1367.84C3908.01 1369.35 3909.31 1372.08 3910.07 1376.02L3921.61 1426.53C3922.73 1431.58 3923.83 1437.17 3924.89 1443.29C3926.02 1449.42 3926.92 1454.56 3927.6 1458.71C3927.82 1459.73 3928.47 1460.29 3929.54 1460.37L3958.6 1371.46C3959.97 1371.28 3961.52 1371.19 3963.25 1371.19C3964.97 1371.11 3966.59 1371.13 3968.09 1371.25C3970.09 1371.41 3972.04 1371.7 3973.96 1372.14C3975.87 1372.51 3977.7 1373.05 3979.46 1373.77L3980.13 1375.11L3945.63 1473.62ZM4079.01 1434.29C4078.33 1445.31 4075.99 1454.86 4071.97 1462.95C4067.95 1471.04 4062.37 1477.17 4055.22 1481.35C4048.07 1485.53 4039.39 1487.21 4029.18 1486.4C4019.03 1485.59 4010.67 1482.56 4004.11 1477.29C3997.54 1471.95 3992.77 1464.96 3989.78 1456.32C3986.87 1447.6 3985.75 1437.81 3986.42 1426.94C3987.09 1416.06 3989.44 1406.58 3993.45 1398.49C3997.47 1390.33 4003.06 1384.16 4010.21 1379.98C4017.36 1375.81 4025.97 1374.12 4036.04 1374.92C4046.33 1375.73 4054.75 1378.81 4061.32 1384.15C4067.88 1389.41 4072.62 1396.4 4075.53 1405.12C4078.52 1413.76 4079.68 1423.49 4079.01 1434.29ZM4009.25 1428.75C4008.84 1435.47 4009.12 1441.86 4010.12 1447.9C4011.11 1453.88 4013.21 1458.86 4016.41 1462.85C4019.62 1466.77 4024.29 1468.98 4030.43 1469.46C4036.51 1469.95 4041.33 1468.5 4044.92 1465.11C4048.57 1461.67 4051.26 1457.06 4052.98 1451.31C4054.7 1445.48 4055.77 1439.2 4056.19 1432.48C4056.59 1425.9 4056.3 1419.58 4055.31 1413.54C4054.31 1407.49 4052.22 1402.47 4049.02 1398.48C4045.89 1394.5 4041.29 1392.26 4035.22 1391.78C4029.07 1391.29 4024.17 1392.77 4020.51 1396.22C4016.86 1399.67 4014.16 1404.3 4012.44 1410.13C4010.72 1415.96 4009.65 1422.17 4009.25 1428.75ZM4105.96 1406.02C4106.19 1402.3 4106.15 1398.78 4105.86 1395.45C4105.56 1392.05 4104.81 1389.04 4103.61 1386.43C4105.34 1385.13 4107.48 1384.15 4110.04 1383.49C4112.6 1382.76 4115.2 1382.5 4117.84 1382.71C4122.2 1383.05 4125.16 1384.51 4126.72 1387.08C4128.36 1389.58 4129.04 1393.16 4128.76 1397.81L4125.39 1452.42C4124.95 1459.57 4125.52 1464.87 4127.11 1468.3C4128.76 1471.74 4132.2 1473.66 4137.41 1474.08C4141.63 1474.41 4146.27 1473.59 4151.35 1471.63C4156.42 1469.66 4161.02 1466.75 4165.13 1462.91L4169.72 1388.34C4172.76 1388 4176.42 1388.01 4180.7 1388.35C4185.06 1388.69 4188.76 1389.27 4191.8 1390.09L4187.13 1465.95C4186.87 1470.1 4187.06 1474.07 4187.68 1477.85C4188.32 1481.57 4189.71 1484.56 4191.87 1486.81C4191.18 1488.77 4189.97 1490.79 4188.27 1492.89C4186.56 1494.91 4184.78 1496.42 4182.93 1497.42C4178.27 1496.12 4174.56 1493.96 4171.8 1490.93C4169.12 1487.92 4167.18 1484.38 4165.99 1480.34C4161.07 1484.55 4155.4 1487.94 4149 1490.52C4142.6 1493.03 4135.97 1494.02 4129.11 1493.47C4122.47 1492.94 4117.13 1490.98 4113.11 1487.57C4109.16 1484.09 4106.34 1479.62 4104.67 1474.17C4103.07 1468.65 4102.47 1462.6 4102.88 1456.02L4105.96 1406.02ZM4218.9 1402.49C4219.52 1400.52 4220.69 1398.42 4222.41 1396.19C4224.12 1393.95 4225.88 1392.33 4227.66 1391.32C4232.73 1392.87 4236.78 1395.42 4239.79 1398.97C4242.87 1402.52 4245.01 1406.86 4246.2 1411.99C4249.04 1406.75 4252.82 1402.52 4257.54 1399.3C4262.26 1396.01 4268.2 1394.65 4275.34 1395.22C4277.27 1395.37 4279.12 1395.62 4280.89 1395.98C4282.67 1396.34 4284.58 1396.78 4286.63 1397.3C4286.44 1400.3 4285.8 1403.77 4284.69 1407.71C4283.67 1411.58 4282.1 1414.94 4279.98 1417.8C4278.57 1417.32 4277.12 1416.99 4275.63 1416.8C4274.21 1416.55 4272.79 1416.33 4271.36 1416.14C4265.57 1415.68 4260.72 1416.95 4256.8 1419.94C4252.96 1422.87 4249.8 1426.43 4247.32 1430.62L4243.01 1500.58C4239.97 1500.91 4236.28 1500.9 4231.92 1500.56C4227.63 1500.22 4223.97 1499.64 4220.93 1498.82L4225.47 1425.22C4225.82 1419.5 4225.25 1414.74 4223.76 1410.96C4222.27 1407.17 4220.65 1404.35 4218.9 1402.49ZM4339.55 1403.12C4342.12 1402.24 4344.45 1401.67 4346.55 1401.41C4348.72 1401.08 4350.77 1400.99 4352.7 1401.14C4358.35 1401.59 4361.62 1404.91 4362.54 1411.09L4369.44 1456.38C4370.45 1463.22 4371.37 1469.94 4372.18 1476.55C4373.07 1483.09 4373.75 1488.42 4374.21 1492.56C4374.42 1493.8 4374.96 1494.45 4375.81 1494.52L4399.4 1407.01C4401.07 1406.78 4403.3 1406.71 4406.09 1406.78C4408.89 1406.86 4411.03 1406.96 4412.53 1407.08C4414.18 1407.21 4416.39 1407.46 4419.16 1407.82C4422.01 1408.19 4424.21 1408.62 4425.76 1409.1L4437.76 1497.61C4437.97 1498.84 4438.5 1499.5 4439.36 1499.57C4441.03 1493.44 4442.66 1487.36 4444.25 1481.3C4445.92 1475.18 4447.67 1468.99 4449.49 1462.74L4464.37 1411.63C4465.61 1411.44 4467.08 1411.34 4468.81 1411.33C4470.54 1411.26 4472.22 1411.28 4473.86 1411.41C4475.58 1411.55 4477.46 1411.84 4479.52 1412.29C4481.65 1412.68 4483.4 1413.28 4484.79 1414.11L4485.47 1415.35L4452.91 1517.35C4450.75 1517.54 4448.05 1517.54 4444.83 1517.36C4441.68 1517.25 4438.82 1517.1 4436.25 1516.89C4432.03 1516.56 4428.68 1515.61 4426.19 1514.05C4423.7 1512.48 4422.16 1509.05 4421.55 1503.76L4417.28 1473.44C4416.55 1467.71 4415.69 1460.7 4414.7 1452.43C4413.7 1444.08 4412.69 1436.03 4411.66 1428.25L4410.7 1428.18C4408.87 1435.72 4406.88 1443.51 4404.74 1451.53C4402.59 1459.55 4400.77 1466.35 4399.28 1471.91L4387.98 1512.09C4385.6 1512.26 4382.72 1512.28 4379.36 1512.16C4375.99 1512.04 4372.95 1511.87 4370.24 1511.65C4366.45 1511.35 4363.35 1510.39 4360.94 1508.76C4358.53 1507.13 4356.87 1503.69 4355.97 1498.44L4339.55 1403.12ZM4492.18 1491.36C4492.68 1483.21 4494.88 1476.66 4498.77 1471.72C4502.74 1466.79 4507.87 1463.32 4514.17 1461.3C4520.54 1459.22 4527.59 1458.48 4535.3 1459.1C4538.3 1459.33 4541.58 1459.7 4545.14 1460.2C4548.77 1460.63 4552.36 1461.24 4555.9 1462.03L4556.41 1453.76C4556.83 1447.04 4555.59 1442.09 4552.7 1438.91C4549.81 1435.74 4545.61 1433.93 4540.11 1433.49C4534.68 1433.06 4529.02 1433.44 4523.13 1434.62C4517.32 1435.74 4511.56 1437.19 4505.85 1438.97C4504.17 1437.04 4502.82 1434.49 4501.8 1431.31C4500.78 1428.07 4500.28 1425.01 4500.32 1422.14C4506.55 1420.05 4513.8 1418.32 4522.07 1416.97C4530.4 1415.61 4538.22 1415.23 4545.5 1415.81C4556.01 1416.64 4564.29 1420.25 4570.36 1426.62C4576.43 1433 4579.08 1442.34 4578.33 1454.64L4575.62 1498.63C4575.37 1502.64 4575.51 1506.21 4576.04 1509.34C4576.64 1512.41 4578.12 1515.11 4580.49 1517.46C4579.72 1519.41 4578.48 1521.47 4576.77 1523.63C4575.06 1525.72 4573.28 1527.27 4571.42 1528.28C4567.05 1527.06 4563.54 1525.13 4560.9 1522.48C4558.34 1519.83 4556.44 1516.81 4555.22 1513.4C4551.13 1516.82 4546.28 1519.84 4540.66 1522.49C4535.04 1525.06 4528.74 1526.07 4521.73 1525.52C4514.66 1524.95 4508.87 1522.91 4504.34 1519.39C4499.89 1515.87 4496.68 1511.59 4494.69 1506.55C4492.7 1501.5 4491.87 1496.44 4492.18 1491.36ZM4514.24 1491.6C4513.97 1495.97 4514.99 1499.79 4517.3 1503.06C4519.62 1506.26 4523.1 1508.05 4527.74 1508.42C4531.74 1508.73 4536.06 1507.96 4540.7 1506.1C4545.34 1504.24 4549.68 1501.32 4553.73 1497.33L4554.98 1477.05C4551.79 1476.43 4548.52 1475.92 4545.17 1475.51C4541.89 1475.11 4538.75 1474.79 4535.75 1474.55C4529.25 1474.03 4524.11 1475.28 4520.34 1478.29C4516.63 1481.3 4514.6 1485.74 4514.24 1491.6ZM4656.63 1530.08C4652.82 1540.71 4648.79 1549.59 4644.54 1556.72C4640.37 1563.87 4635.24 1569.14 4629.14 1572.54C4623.04 1575.93 4615.25 1577.26 4605.74 1576.5C4602.39 1576.23 4598.7 1575.55 4594.67 1574.44C4590.72 1573.4 4587.65 1572.41 4585.49 1571.44C4585.43 1568.85 4585.97 1566.02 4587.09 1562.94C4588.28 1559.88 4589.65 1557.54 4591.18 1555.94C4592.93 1556.65 4595.29 1557.41 4598.25 1558.22C4601.22 1559.03 4604.1 1559.55 4606.88 1559.77C4614.1 1560.34 4619.71 1558.38 4623.72 1553.88C4627.8 1549.39 4631.31 1543.2 4634.23 1535.31L4635.14 1532.8C4630.72 1532.3 4627.24 1531.16 4624.69 1529.38C4622.15 1527.52 4620.33 1524.4 4619.24 1520L4596.94 1423.99C4602.01 1422.09 4606.54 1421.3 4610.54 1421.62C4613.19 1421.83 4615.39 1422.72 4617.16 1424.3C4619.01 1425.81 4620.31 1428.54 4621.07 1432.48L4632.61 1483C4633.73 1488.05 4634.83 1493.63 4635.88 1499.75C4637.01 1505.88 4637.92 1511.02 4638.6 1515.17C4638.82 1516.2 4639.47 1516.75 4640.54 1516.84L4669.6 1427.93C4670.97 1427.75 4672.52 1427.66 4674.24 1427.65C4675.97 1427.57 4677.59 1427.59 4679.09 1427.71C4681.09 1427.87 4683.04 1428.17 4684.95 1428.61C4686.87 1428.97 4688.7 1429.52 4690.45 1430.23L4691.13 1431.58L4656.63 1530.08Z" fill="#2F5F5F"/>
<rect width="2140.86" height="1352.12" rx="50" transform="matrix(0.977622 -0.210369 0.20548 0.978661 353 448.919)" fill="#40D1FF"/>
<rect x="966.809" y="496" width="1008.18" height="249.809" rx="50" transform="rotate(90 966.809 496)" fill="#6CB574"/>
<rect width="843.066" height="266.293" rx="50" transform="matrix(0.639423 0.768855 -0.763215 0.646145 1045.24 736)" fill="#498888"/>
<path d="M648 433C648 405.386 670.386 383 698 383H1488.99C1516.6 383 1538.99 405.386 1538.99 433V635.453C1538.99 663.068 1516.6 685.453 1488.99 685.453H698C670.386 685.453 648 663.068 648 635.453V433Z" fill="#1F6CDE"/>
<rect width="541.748" height="990.791" rx="50" transform="matrix(0.938706 -0.344719 0.339337 0.940665 1782.46 411.751)" fill="#14666B"/>
<rect width="275.079" height="704.996" rx="50" transform="matrix(0.938706 -0.344719 0.339337 0.940665 1921 623.825)" fill="#40D1FF"/>
<rect x="1921.47" y="1334.56" width="1013" height="136.396" rx="50" transform="rotate(-110 1921.47 1334.56)" fill="#AE5DAB"/>
</svg>
