<svg width="5116" height="1833" viewBox="0 0 5116 1833" fill="none" xmlns="http://www.w3.org/2000/svg">
<rect width="2313.27" height="1373.29" rx="100" transform="matrix(0.9951 0.0988718 -0.0768091 0.997046 2081.48 70)" fill="#7BDFFF"/>
<path d="M2304.29 520.398L2257.08 419.886L2187.91 413.176L2178.96 526.323L2207.82 529.123C2213.13 529.637 2215.6 532.221 2215.23 536.873C2215.05 539.199 2213.9 543.106 2211.8 548.594L2210.49 552.485L2114.44 543.169C2113.27 541.047 2112.81 538.324 2113.08 535.001C2113.37 531.346 2114.79 528.135 2117.35 525.37L2151.01 524.617L2172.89 247.981L2144.03 245.181C2138.72 244.666 2136.25 242.083 2136.62 237.431C2136.8 235.104 2137.94 231.197 2140.05 225.709L2141.36 221.818L2272.25 234.513C2290.83 236.315 2306.35 240.835 2318.82 248.071C2331.31 254.975 2341.15 263.632 2348.35 274.04C2355.58 284.117 2360.59 294.815 2363.37 306.135C2366.18 317.122 2367.2 327.434 2366.44 337.071C2365.54 348.369 2362.11 360.09 2356.13 372.235C2350.52 384.079 2341.84 394.455 2330.1 403.362C2318.36 412.269 2303.56 417.697 2285.69 419.647L2333.21 516.171C2338.68 527.416 2343.75 535.108 2348.44 539.246C2353.15 543.051 2359.66 545.356 2367.95 546.161C2370.6 546.418 2373.42 546.692 2376.41 546.982C2379.75 546.971 2382.6 546.912 2384.95 546.805C2387.24 551.715 2388.24 558.007 2387.97 565.682C2376.37 568.576 2365.6 569.54 2355.65 568.574C2345.03 567.544 2335.67 563.288 2327.57 555.806C2319.5 547.991 2311.74 536.188 2304.29 520.398ZM2189.72 390.248L2259.39 397.006C2281.62 399.162 2299.73 394.222 2313.72 382.185C2327.74 369.816 2335.52 353.828 2337.07 334.223C2338.63 314.618 2333.46 297.541 2321.57 282.995C2309.71 268.115 2292.66 259.598 2270.43 257.442L2200.76 250.684L2189.72 390.248ZM2614.66 460.596L2447.45 444.377L2447.01 449.86C2444.46 482.093 2450.72 508.65 2465.79 529.532C2481.21 550.114 2503.02 561.773 2531.22 564.508C2544.16 565.764 2557.58 565.223 2571.47 562.887C2585.69 560.584 2597.3 557.524 2606.29 553.709C2608.74 556.624 2610.49 559.808 2611.56 563.26C2612.65 566.379 2613.23 569.616 2613.3 572.972C2584.52 585.918 2555.04 590.928 2524.85 587.999C2501.62 585.747 2481.81 578.467 2465.4 566.16C2449.01 553.521 2436.77 537.098 2428.67 516.892C2420.6 496.353 2417.59 473.124 2419.64 447.205C2421.72 420.954 2428 398.626 2438.48 380.222C2449.32 361.518 2463.62 347.669 2481.38 338.677C2499.15 329.685 2519.47 326.299 2542.37 328.519C2603.41 334.44 2631.06 373.787 2625.3 446.56C2622.2 451.952 2618.65 456.63 2614.66 460.596ZM2451.13 423.137L2599.44 437.522C2603.7 383.69 2584.09 354.666 2540.63 350.451C2518.73 348.327 2499.74 353.851 2483.66 367.024C2467.9 380.229 2457.06 398.934 2451.13 423.137ZM2846.81 442.429L2839.54 388.484C2825.72 381.451 2809.52 377.034 2790.94 375.231C2773.69 373.558 2758.22 376.746 2744.55 384.795C2730.9 392.512 2719.79 403.992 2711.23 419.234C2702.67 434.476 2697.55 452.731 2695.87 473.998C2693.29 506.563 2699.55 533.12 2714.64 553.67C2729.73 574.22 2751.21 585.846 2779.08 588.549C2790.69 589.676 2802.91 589.521 2815.73 588.086C2828.54 586.65 2839.45 584.025 2848.44 580.209C2850.56 583.093 2852.14 586.26 2853.21 589.712C2854.3 592.831 2855.04 596.085 2855.45 599.472C2843 604.627 2829.67 608.357 2815.44 610.66C2801.22 612.964 2786.98 613.424 2772.71 612.04C2749.48 609.788 2729.67 602.508 2713.26 590.201C2696.87 577.562 2684.63 561.139 2676.53 540.933C2668.46 520.394 2665.45 497.165 2667.5 471.246C2669.55 445.327 2676.15 423.198 2687.3 404.858C2698.47 386.186 2712.94 372.353 2730.7 363.361C2748.82 354.069 2769.49 350.549 2792.71 352.802C2803.99 353.896 2815.83 356.383 2828.23 360.265C2840.65 363.813 2850.86 367.984 2858.83 372.776C2862.14 377.45 2864.9 382.74 2867.11 388.646L2863.61 445.565C2860.87 446.305 2858.35 446.562 2856.02 446.337C2852.71 446.015 2849.63 444.712 2846.81 442.429ZM3009.66 612.923C3026.91 614.596 3042.36 611.574 3056.01 603.857C3069.99 596.173 3081.11 584.527 3089.36 568.92C3097.95 553.346 3103.08 534.925 3104.77 513.658C3106.45 492.391 3104.28 473.263 3098.27 456.272C3092.59 439.314 3083.47 425.705 3070.91 415.446C3058.68 405.219 3043.94 399.269 3026.69 397.595C3009.44 395.922 2993.82 398.928 2979.84 406.613C2966.19 414.329 2955.07 425.975 2946.49 441.55C2938.23 457.156 2933.26 475.593 2931.58 496.86C2929.9 518.127 2931.9 537.24 2937.58 554.198C2943.59 571.188 2952.71 584.797 2964.94 595.024C2977.17 605.251 2992.07 611.217 3009.66 612.923ZM3007.92 634.854C2984.7 632.602 2964.88 625.322 2948.47 613.015C2932.42 600.408 2920.34 584.002 2912.24 563.795C2904.17 543.257 2901.16 520.028 2903.21 494.109C2905.26 468.19 2911.86 446.06 2923.01 427.72C2934.18 409.048 2948.65 395.216 2966.41 386.224C2984.53 376.931 3005.2 373.411 3028.42 375.664C3051.65 377.917 3071.29 385.346 3087.34 397.953C3103.75 410.26 3115.99 426.683 3124.06 447.221C3132.16 467.428 3135.18 490.491 3133.13 516.41C3131.08 542.329 3124.47 564.624 3113.3 583.296C3102.15 601.636 3087.52 615.452 3069.4 624.745C3051.64 633.737 3031.15 637.107 3007.92 634.854ZM3282.46 656.46L3166.5 645.213C3165.71 642.458 3165.4 640.083 3165.56 638.09C3165.77 635.431 3167.01 632.371 3169.29 628.909L3203.45 628.204L3219.69 422.845L3181.87 419.177C3181.06 416.754 3180.75 414.38 3180.93 412.054C3181.17 409.063 3182.41 406.003 3184.67 402.873L3234.68 398.181C3240.09 401.719 3244.44 405.825 3247.75 410.499L3236.47 470.681C3247.16 449.618 3260.99 433.38 3277.94 421.965C3294.91 410.218 3312.86 405.261 3331.77 407.095C3335.42 407.449 3339.54 408.184 3344.13 409.299C3349.08 410.114 3353.51 411.213 3357.41 412.596C3360.72 417.27 3363.48 422.56 3365.68 428.467L3362.38 482.893C3359.98 483.665 3357.45 483.922 3354.8 483.665C3351.48 483.343 3348.41 482.04 3345.58 479.757L3338.45 430.346C3337.15 429.885 3335.84 429.59 3334.51 429.461C3333.52 429.365 3332.52 429.268 3331.53 429.172C3317.26 427.788 3303.26 431.453 3289.54 440.167C3275.83 448.548 3264.2 460.312 3254.65 475.458C3245.45 490.303 3240.17 506.366 3238.8 523.645L3230.4 629.813L3279.17 634.544C3284.48 635.059 3286.95 637.642 3286.58 642.294C3286.43 644.288 3285.49 647.713 3283.77 652.569L3282.46 656.46ZM3629.26 683.066L3579.24 687.758C3573.84 684.22 3569.48 680.114 3566.18 675.44L3573.52 626.931C3563.4 645.035 3549.76 658.948 3532.61 668.669C3515.46 678.39 3497.1 682.301 3477.52 680.403C3457.95 678.504 3441.12 671.514 3427.03 659.432C3412.96 647.019 3402.37 630.923 3395.24 611.145C3388.47 591.068 3386.07 568.568 3388.04 543.646C3390.15 517.062 3396.78 494.434 3407.96 475.762C3419.16 456.757 3433.98 442.625 3452.43 433.365C3470.88 424.105 3491.89 420.617 3515.44 422.902C3541.32 425.412 3564.03 436.32 3583.56 455.627L3590.07 373.384L3549.76 369.474C3548.95 367.051 3548.63 364.677 3548.82 362.351C3549.05 359.36 3550.3 356.3 3552.55 353.17L3605.06 348.72C3610.46 352.258 3614.82 356.363 3618.13 361.037L3594.23 663.094L3632.06 666.762C3632.87 669.185 3633.18 671.559 3633 673.885C3632.76 676.876 3631.51 679.936 3629.26 683.066ZM3574.73 567.278L3581.55 481.047C3560.85 459.618 3538.22 447.713 3513.67 445.332C3486.46 442.693 3464.12 450.404 3446.65 468.465C3429.17 486.525 3419.09 512.503 3416.41 546.397C3414.78 566.999 3416.49 585.581 3421.53 602.143C3426.6 618.372 3434.25 631.504 3444.49 641.538C3454.73 651.572 3467.15 657.297 3481.75 658.713C3497.01 660.193 3511.46 657.074 3525.11 649.358C3538.79 641.308 3550.03 630.177 3558.85 615.964C3568.02 601.451 3573.31 585.222 3574.73 567.278ZM3951.14 721.318L3805.33 707.175C3804.16 705.052 3803.7 702.33 3803.97 699.007C3804.26 695.351 3805.68 692.141 3808.24 689.376L3871.76 691.518L3892.73 426.347L3824.01 458.355C3819.73 453.253 3816.72 446.933 3814.97 439.398L3906.56 391.022C3909.49 391.977 3912.4 393.263 3915.28 394.882C3918.19 396.168 3920.74 397.755 3922.93 399.642L3899.71 693.225L3948.48 697.955C3953.78 698.47 3956.26 701.054 3955.89 705.706C3955.7 708.032 3954.56 711.939 3952.45 717.427L3951.14 721.318ZM4120.47 719.158C4137.39 720.799 4151.81 718.18 4163.72 711.299C4175.99 704.117 4186.15 694.053 4194.19 681.104C4202.26 667.824 4208.45 653.021 4212.75 636.696C4217.41 620.071 4220.43 602.952 4221.83 585.34C4223.19 568.061 4222.88 550.953 4220.87 534.017C4219.23 516.78 4215.46 501.012 4209.57 486.712C4203.71 472.079 4195.28 460.213 4184.3 451.111C4173.68 441.71 4159.91 436.188 4142.99 434.547C4126.07 432.906 4111.47 435.676 4099.2 442.857C4087.29 449.738 4077.3 459.819 4069.23 473.099C4061.18 486.048 4054.83 500.835 4050.17 517.46C4045.87 533.785 4043.04 550.587 4041.67 567.867C4040.28 585.478 4040.41 602.902 4042.05 620.139C4044.05 637.076 4047.99 652.86 4053.85 667.492C4059.74 681.792 4068 693.643 4078.62 703.044C4089.6 712.146 4103.55 717.517 4120.47 719.158ZM4118.62 742.585C4096.39 740.429 4078.03 733.792 4063.53 722.676C4049.05 711.226 4037.8 697.076 4029.78 680.225C4021.77 663.042 4016.39 644.438 4013.63 624.414C4011.2 604.423 4010.76 584.624 4012.31 565.019C4013.86 545.413 4017.39 526.167 4022.89 507.28C4028.76 488.093 4036.97 470.975 4047.52 455.926C4058.1 440.544 4071.4 428.775 4087.42 420.619C4103.47 412.131 4122.61 408.964 4144.84 411.12C4167.07 413.276 4185.42 420.079 4199.89 431.528C4214.39 442.645 4225.64 456.795 4233.64 473.979C4241.67 490.83 4246.9 509.251 4249.33 529.243C4252.12 548.934 4252.74 568.583 4251.19 588.188C4249.64 607.794 4245.93 627.19 4240.07 646.377C4234.53 665.596 4226.48 682.897 4215.9 698.278C4205.35 713.327 4192.05 725.096 4176 733.585C4159.98 741.741 4140.85 744.741 4118.62 742.585Z" fill="#2F5F5F"/>
<path d="M2201.45 751.702C2200.6 762.433 2197.01 771.252 2190.67 778.159C2184.34 784.989 2176.84 789.354 2168.16 791.255C2171.93 793.031 2175.03 795.878 2177.46 799.796C2179.97 803.644 2181.86 807.941 2183.13 812.687L2191.22 840.974C2192.56 845.727 2193.91 849.423 2195.27 852.062C2196.7 854.708 2198.4 856.95 2200.37 858.786C2198.54 861.116 2195.95 862.784 2192.58 863.789C2189.29 864.802 2186.1 865.158 2182.99 864.857C2178.33 864.405 2175.02 862.791 2173.05 860.014C2171.08 857.237 2169.36 853.27 2167.89 848.113L2158.74 815.375C2157.23 809.822 2154.98 805.099 2152 801.206C2149.03 797.235 2143.93 794.899 2136.71 794.199L2117.73 792.358L2112.67 856.391C2110.69 856.591 2108.58 856.621 2106.32 856.481C2104.14 856.425 2102.07 856.303 2100.13 856.115C2098.35 855.942 2096.29 855.665 2093.98 855.283C2091.73 854.987 2089.73 854.558 2087.98 853.996L2100.48 695.955L2102.1 694.702C2110.89 695.397 2119.48 696.074 2127.88 696.732C2136.28 697.312 2144.44 697.986 2152.36 698.754C2168.51 700.32 2181.03 705.649 2189.94 714.739C2198.84 723.83 2202.68 736.151 2201.45 751.702ZM2123.8 715.611L2119.3 772.53C2123.81 772.811 2128.44 773.142 2133.19 773.524C2137.93 773.905 2141.89 774.251 2145.07 774.559C2152.68 775.297 2158.65 774.466 2162.99 772.066C2167.33 769.666 2170.44 766.403 2172.33 762.277C2174.23 758.073 2175.35 753.716 2175.71 749.206C2176.09 744.463 2175.67 739.878 2174.45 735.451C2173.24 731.023 2170.68 727.249 2166.78 724.129C2162.88 721.008 2157.13 719.079 2149.52 718.341C2146.18 718.017 2142.03 717.614 2137.06 717.132C2132.17 716.58 2127.76 716.073 2123.8 715.611ZM2304.93 864.814C2299.03 868.237 2292.14 870.782 2284.26 872.447C2276.38 874.112 2268.41 874.553 2260.33 873.769C2251.1 872.873 2243.5 870.491 2237.55 866.623C2231.6 862.677 2227.03 857.728 2223.82 851.775C2220.62 845.745 2218.53 839.039 2217.55 831.657C2216.57 824.197 2216.4 816.541 2217.02 808.687C2217.94 797.101 2220.54 786.894 2224.84 778.065C2229.21 769.244 2235.18 762.536 2242.74 757.941C2250.38 753.354 2259.6 751.583 2270.39 752.63C2280.48 753.609 2288.77 756.646 2295.25 761.741C2301.81 766.843 2306.53 773.335 2309.43 781.216C2312.33 789.02 2313.42 797.548 2312.69 806.801C2312.39 810.533 2311.98 813.745 2311.46 816.437C2311.01 819.058 2310.36 821.932 2309.48 825.06L2241.36 818.452C2241.06 828.217 2242.56 836.433 2245.86 843.101C2249.17 849.768 2255.71 853.576 2265.49 854.525C2271.32 855.09 2277.01 854.78 2282.58 853.597C2288.15 852.413 2293.52 850.818 2298.69 848.812C2300.48 850.866 2301.92 853.435 2303.01 856.518C2304.17 859.608 2304.81 862.373 2304.93 864.814ZM2268.98 770.359C2261.53 769.636 2255.59 771.998 2251.17 777.446C2246.83 782.901 2244.02 790.777 2242.73 801.074L2289.55 805.614L2289.79 802.582C2290.43 794.417 2289.2 787.207 2286.1 780.951C2283 774.695 2277.29 771.164 2268.98 770.359ZM2403.46 813.372C2404.01 808.333 2403.92 803.584 2403.18 799.124C2402.52 794.594 2400.78 790.821 2397.97 787.806C2395.16 784.713 2390.93 782.892 2385.26 782.342C2377.89 781.627 2371.86 784.646 2367.18 791.401C2362.57 798.163 2359.71 808.659 2358.58 822.888C2357.48 836.885 2358.96 847.332 2363.03 854.23C2367.1 861.05 2373.33 864.867 2381.72 865.68C2387 866.192 2392.1 865.473 2397.03 863.522C2401.96 861.493 2406.6 859.162 2410.96 856.528C2412.95 858.053 2414.84 860.352 2416.63 863.425C2418.51 866.428 2419.61 869.277 2419.95 871.974C2414.26 876.594 2407.68 880.147 2400.21 882.635C2392.74 885.045 2384.86 885.847 2376.55 885.042C2365.45 883.965 2356.58 880.323 2349.95 874.117C2343.4 867.919 2338.82 860.109 2336.2 850.688C2333.66 841.274 2332.81 831.202 2333.66 820.471C2334.8 806.086 2338.06 794.609 2343.43 786.041C2348.88 777.481 2355.49 771.463 2363.28 767.987C2371.06 764.511 2379.07 763.172 2387.3 763.97C2396.77 764.889 2404.47 767.477 2410.39 771.734C2416.32 775.913 2420.62 780.875 2423.29 786.619C2425.98 792.285 2427.1 797.801 2426.68 803.166C2426.35 807.287 2425.12 810.459 2422.99 812.681C2420.86 814.904 2417.66 815.808 2413.39 815.393C2410.05 815.07 2406.74 814.396 2403.46 813.372ZM2542.6 840.031C2541.65 852.006 2538.92 862.358 2534.39 871.086C2529.87 879.815 2523.68 886.384 2515.82 890.793C2507.96 895.202 2498.48 896.868 2487.38 895.791C2476.35 894.722 2467.32 891.26 2460.27 885.405C2453.23 879.472 2448.17 871.773 2445.08 862.306C2442.08 852.769 2441.05 842.091 2441.98 830.272C2442.92 818.453 2445.65 808.179 2450.17 799.451C2454.7 790.644 2460.9 784.037 2468.75 779.628C2476.61 775.219 2486.02 773.545 2496.96 774.607C2508.14 775.691 2517.25 779.199 2524.29 785.132C2531.34 790.987 2536.37 798.683 2539.37 808.22C2542.45 817.686 2543.53 828.29 2542.6 840.031ZM2466.79 832.678C2466.21 839.987 2466.4 846.94 2467.37 853.537C2468.34 860.056 2470.53 865.518 2473.93 869.923C2477.35 874.25 2482.39 876.738 2489.07 877.385C2495.67 878.025 2500.95 876.54 2504.91 872.928C2508.96 869.246 2511.97 864.288 2513.95 858.055C2515.93 851.745 2517.22 844.935 2517.79 837.626C2518.36 830.472 2518.16 823.597 2517.2 817C2516.23 810.403 2514.05 804.902 2510.64 800.497C2507.31 796.1 2502.35 793.581 2495.75 792.941C2489.07 792.293 2483.71 793.811 2479.66 797.493C2475.62 801.174 2472.6 806.171 2470.62 812.482C2468.63 818.792 2467.35 825.525 2466.79 832.678ZM2568.06 795.723C2568.77 793.599 2570.08 791.336 2572 788.936C2573.91 786.536 2575.84 784.804 2577.8 783.741C2583.3 785.527 2587.65 788.378 2590.86 792.294C2594.15 796.217 2596.39 800.979 2597.59 806.58C2600.77 800.934 2604.97 796.404 2610.16 792.991C2615.37 789.5 2621.85 788.131 2629.62 788.884C2631.71 789.087 2633.72 789.399 2635.64 789.821C2637.57 790.242 2639.64 790.757 2641.86 791.364C2641.6 794.63 2640.83 798.395 2639.56 802.659C2638.37 806.852 2636.59 810.481 2634.24 813.543C2632.72 813.004 2631.14 812.616 2629.52 812.38C2627.98 812.074 2626.43 811.807 2624.89 811.578C2618.6 810.968 2613.3 812.256 2608.98 815.441C2604.74 818.556 2601.23 822.369 2598.45 826.879L2592.43 902.925C2589.12 903.231 2585.1 903.154 2580.36 902.695C2575.71 902.243 2571.73 901.544 2568.44 900.598L2574.77 820.586C2575.26 814.366 2574.74 809.182 2573.19 805.036C2571.64 800.889 2569.93 797.785 2568.06 795.723ZM2646.58 851.527C2647.67 837.686 2650.75 826.467 2655.81 817.869C2660.87 809.27 2666.99 803.125 2674.17 799.434C2681.35 795.664 2688.67 794.141 2696.12 794.864C2701.01 795.338 2705.57 796.525 2709.8 798.424C2714.04 800.245 2718.05 802.475 2721.83 805.114L2726.62 744.581L2728.25 743.211L2737.33 744.092C2742.38 744.582 2745.7 746.157 2747.29 748.819C2748.96 751.41 2749.58 755.388 2749.16 760.753L2739.4 884.154C2739.04 888.664 2739.13 892.943 2739.67 896.991C2740.29 901.047 2741.79 904.327 2744.18 906.83C2743.38 908.947 2741.99 911.163 2740.01 913.478C2738.11 915.723 2736.14 917.374 2734.11 918.429C2729.52 917.044 2725.86 914.926 2723.11 912.074C2720.36 909.222 2718.36 905.893 2717.09 902.088C2712.78 906.214 2707.59 909.511 2701.52 911.978C2695.54 914.454 2689.01 915.349 2681.95 914.663C2673.1 913.805 2665.88 910.598 2660.3 905.041C2654.8 899.415 2650.88 892.023 2648.56 882.865C2646.31 873.636 2645.65 863.19 2646.58 851.527ZM2671.14 854.027C2670.04 867.945 2671.34 878.14 2675.06 884.612C2678.77 891.084 2683.46 894.595 2689.13 895.144C2693.24 895.543 2697.68 894.76 2702.45 892.794C2707.3 890.835 2711.71 887.502 2715.68 882.794L2720.24 825.176C2716.93 822.504 2713.36 820.16 2709.53 818.143C2705.78 816.134 2701.89 814.933 2697.85 814.542C2691.33 813.909 2685.51 816.792 2680.38 823.19C2675.35 829.518 2672.26 839.797 2671.14 854.027ZM2821.26 868.47C2822.35 854.629 2825.43 843.41 2830.49 834.811C2835.55 826.213 2841.67 820.068 2848.85 816.377C2856.03 812.607 2863.35 811.084 2870.8 811.807C2875.69 812.281 2880.25 813.468 2884.48 815.367C2888.72 817.188 2892.73 819.418 2896.51 822.057L2901.3 761.523L2902.93 760.154L2912.02 761.035C2917.06 761.525 2920.38 763.1 2921.97 765.761C2923.64 768.353 2924.26 772.331 2923.84 777.696L2914.08 901.097C2913.72 905.606 2913.81 909.886 2914.35 913.934C2914.97 917.99 2916.47 921.27 2918.86 923.773C2918.06 925.89 2916.68 928.106 2914.69 930.421C2912.79 932.666 2910.83 934.316 2908.79 935.372C2904.2 933.987 2900.54 931.869 2897.79 929.017C2895.04 926.165 2893.04 922.836 2891.77 919.031C2887.46 923.157 2882.27 926.453 2876.2 928.921C2870.22 931.396 2863.69 932.292 2856.63 931.606C2847.78 930.748 2840.56 927.54 2834.98 921.984C2829.48 916.358 2825.56 908.965 2823.24 899.807C2820.99 890.579 2820.33 880.133 2821.26 868.47ZM2845.82 870.97C2844.72 884.888 2846.02 895.083 2849.74 901.555C2853.45 908.027 2858.14 911.537 2863.81 912.087C2867.92 912.486 2872.36 911.703 2877.14 909.736C2881.98 907.778 2886.39 904.445 2890.36 899.737L2894.92 842.119C2891.61 839.447 2888.04 837.103 2884.21 835.086C2880.46 833.077 2876.57 831.876 2872.53 831.484C2866.01 830.852 2860.19 833.735 2855.06 840.133C2850.03 846.461 2846.94 856.74 2845.82 870.97ZM2942.68 905.281C2943.38 896.417 2945.9 889.335 2950.23 884.035C2954.64 878.743 2960.29 875.06 2967.18 872.986C2974.15 870.842 2981.83 870.176 2990.22 870.989C2993.48 871.306 2997.04 871.769 3000.9 872.378C3004.85 872.918 3008.74 873.648 3012.58 874.569L3013.29 865.588C3013.87 858.279 3012.62 852.868 3009.53 849.357C3006.45 845.845 3001.91 843.799 2995.94 843.219C2990.04 842.647 2983.87 842.95 2977.44 844.128C2971.09 845.237 2964.8 846.702 2958.55 848.525C2956.76 846.393 2955.34 843.591 2954.29 840.12C2953.24 836.57 2952.76 833.233 2952.85 830.108C2959.67 827.949 2967.59 826.21 2976.61 824.891C2985.72 823.58 2994.22 823.308 3002.14 824.076C3013.56 825.183 3022.5 829.263 3028.99 836.317C3035.47 843.371 3038.18 853.585 3037.12 866.959L3033.34 914.78C3033 919.134 3033.08 923.021 3033.59 926.44C3034.19 929.788 3035.75 932.761 3038.28 935.357C3037.41 937.467 3036.03 939.682 3034.12 942.005C3032.22 944.25 3030.25 945.9 3028.21 946.956C3023.47 945.556 3019.7 943.387 3016.88 940.45C3014.14 937.52 3012.13 934.191 3010.86 930.464C3006.35 934.101 3001.01 937.305 2994.85 940.076C2988.69 942.77 2981.8 943.747 2974.19 943.009C2966.51 942.264 2960.24 939.932 2955.39 936.014C2950.61 932.103 2947.19 927.383 2945.12 921.855C2943.06 916.326 2942.24 910.802 2942.68 905.281ZM2966.68 905.964C2966.31 910.707 2967.34 914.882 2969.8 918.489C2972.26 922.018 2976.01 924.028 2981.06 924.517C2985.4 924.939 2990.12 924.182 2995.2 922.246C3000.28 920.31 3005.06 917.208 3009.55 912.942L3011.29 890.898C3007.83 890.17 3004.28 889.552 3000.64 889.042C2997.08 888.54 2993.67 888.131 2990.41 887.815C2983.35 887.13 2977.73 888.387 2973.57 891.588C2969.48 894.796 2967.19 899.588 2966.68 905.964ZM3078.81 813.53C3079.23 808.164 3080.43 804.363 3082.41 802.126C3084.39 799.811 3087.94 798.902 3093.07 799.399L3102.15 800.28L3103.43 801.932L3100.71 836.339L3129.61 838.791C3130.07 841.891 3130.19 844.841 3129.97 847.64C3129.72 850.828 3129.13 853.788 3128.21 856.519L3099.36 853.368L3093.84 923.116C3093.6 926.226 3094.14 928.786 3095.46 930.795C3096.8 932.727 3099.21 933.862 3102.7 934.201L3118.66 935.748C3119.7 939.453 3120.04 943.561 3119.68 948.071C3119.6 949.004 3119.49 949.933 3119.34 950.858C3119.27 951.714 3119.09 952.519 3118.8 953.274C3114.88 953.364 3110.69 953.35 3106.24 953.232C3101.79 953.191 3097.27 952.949 3092.69 952.505C3076.23 950.908 3068.64 942.101 3069.9 926.083L3075.83 851.203L3058.81 849.787C3058.33 846.92 3058.22 843.893 3058.47 840.705C3058.69 837.905 3059.27 835.023 3060.21 832.059L3077.19 833.941L3078.81 813.53ZM3136.92 924.121C3137.62 915.257 3140.14 908.175 3144.47 902.875C3148.88 897.583 3154.53 893.9 3161.42 891.826C3168.39 889.682 3176.07 889.016 3184.46 889.83C3187.72 890.146 3191.28 890.609 3195.15 891.219C3199.09 891.758 3202.99 892.488 3206.82 893.409L3207.53 884.428C3208.11 877.119 3206.86 871.709 3203.77 868.197C3200.69 864.685 3196.15 862.639 3190.18 862.059C3184.28 861.487 3178.11 861.79 3171.68 862.968C3165.33 864.077 3159.04 865.542 3152.79 867.365C3151.01 865.233 3149.58 862.431 3148.53 858.96C3147.48 855.411 3147 852.073 3147.09 848.948C3153.91 846.789 3161.83 845.05 3170.86 843.731C3179.96 842.42 3188.47 842.148 3196.38 842.916C3207.8 844.023 3216.74 848.104 3223.23 855.157C3229.71 862.211 3232.42 872.425 3231.36 885.799L3227.58 933.62C3227.24 937.974 3227.32 941.861 3227.83 945.28C3228.43 948.628 3229.99 951.601 3232.53 954.197C3231.65 956.307 3230.27 958.523 3228.36 960.845C3226.46 963.09 3224.49 964.74 3222.46 965.796C3217.72 964.396 3213.94 962.228 3211.12 959.29C3208.38 956.36 3206.37 953.032 3205.1 949.304C3200.59 952.941 3195.25 956.145 3189.09 958.916C3182.93 961.61 3176.04 962.587 3168.44 961.849C3160.75 961.104 3154.48 958.772 3149.63 954.854C3144.85 950.943 3141.43 946.223 3139.36 940.695C3137.3 935.167 3136.48 929.642 3136.92 924.121ZM3160.92 924.804C3160.55 929.547 3161.59 933.722 3164.04 937.329C3166.5 940.859 3170.25 942.868 3175.3 943.357C3179.64 943.779 3184.36 943.022 3189.44 941.086C3194.52 939.15 3199.3 936.049 3203.79 931.782L3205.53 909.738C3202.07 909.011 3198.52 908.392 3194.88 907.883C3191.32 907.381 3187.91 906.972 3184.65 906.655C3177.59 905.97 3171.97 907.228 3167.81 910.428C3163.72 913.636 3161.43 918.428 3160.92 924.804ZM3369.28 974.631C3364.93 986.118 3360.37 995.706 3355.62 1003.39C3350.94 1011.09 3345.25 1016.73 3338.56 1020.31C3331.86 1023.89 3323.35 1025.18 3313.02 1024.18C3309.37 1023.82 3305.37 1023.01 3301.01 1021.72C3296.72 1020.52 3293.41 1019.38 3291.07 1018.29C3291.06 1015.47 3291.7 1012.39 3292.98 1009.07C3294.33 1005.75 3295.86 1003.24 3297.56 1001.52C3299.45 1002.33 3302.01 1003.21 3305.22 1004.15C3308.43 1005.08 3311.55 1005.7 3314.58 1005.99C3322.42 1006.75 3328.56 1004.73 3333.01 999.908C3337.54 995.097 3341.47 988.427 3344.8 979.896L3345.84 977.176C3341.04 976.554 3337.27 975.248 3334.53 973.259C3331.8 971.192 3329.88 967.754 3328.78 962.945L3306.33 858.046C3311.88 856.078 3316.83 855.304 3321.18 855.726C3324.05 856.005 3326.44 857.019 3328.33 858.77C3330.31 860.451 3331.68 863.443 3332.43 867.748L3344.03 922.936C3345.16 928.452 3346.24 934.551 3347.28 941.233C3348.39 947.923 3349.27 953.533 3349.93 958.063C3350.16 959.182 3350.85 959.798 3352.02 959.911L3385.33 863.71C3386.83 863.543 3388.51 863.471 3390.39 863.496C3392.27 863.444 3394.03 863.497 3395.66 863.655C3397.83 863.866 3399.95 864.228 3402.02 864.743C3404.1 865.179 3406.09 865.803 3407.98 866.613L3408.68 868.092L3369.28 974.631ZM3515.17 934.364C3514.22 946.339 3511.49 956.691 3506.96 965.419C3502.44 974.148 3496.25 980.717 3488.39 985.126C3480.53 989.535 3471.05 991.201 3459.95 990.124C3448.92 989.055 3439.89 985.593 3432.84 979.738C3425.8 973.805 3420.74 966.106 3417.65 956.639C3414.65 947.102 3413.62 936.424 3414.55 924.605C3415.49 912.786 3418.22 902.512 3422.74 893.784C3427.27 884.977 3433.46 878.37 3441.32 873.961C3449.18 869.552 3458.59 867.878 3469.53 868.94C3480.71 870.024 3489.82 873.533 3496.86 879.465C3503.91 885.32 3508.93 893.016 3511.93 902.553C3515.02 912.019 3516.1 922.623 3515.17 934.364ZM3439.36 927.011C3438.78 934.32 3438.97 941.273 3439.94 947.87C3440.91 954.39 3443.1 959.852 3446.5 964.256C3449.92 968.583 3454.96 971.071 3461.64 971.718C3468.24 972.358 3473.52 970.873 3477.48 967.261C3481.53 963.579 3484.54 958.621 3486.52 952.388C3488.5 946.078 3489.79 939.268 3490.36 931.959C3490.93 924.805 3490.73 917.93 3489.77 911.333C3488.8 904.736 3486.62 899.235 3483.21 894.83C3479.88 890.433 3474.92 887.914 3468.32 887.274C3461.64 886.626 3456.28 888.144 3452.23 891.826C3448.19 895.507 3445.17 900.504 3443.18 906.815C3441.2 913.125 3439.92 919.858 3439.36 927.011ZM3545.03 904.117C3545.35 900.074 3545.38 896.237 3545.12 892.608C3544.86 888.9 3544.1 885.614 3542.84 882.75C3544.75 881.368 3547.1 880.342 3549.89 879.673C3552.69 878.925 3555.53 878.691 3558.4 878.97C3563.13 879.429 3566.33 881.071 3567.98 883.895C3569.72 886.65 3570.39 890.554 3569.99 895.608L3565.29 954.976C3564.68 962.751 3565.2 968.522 3566.86 972.287C3568.59 976.059 3572.3 978.221 3577.96 978.77C3582.54 979.214 3587.61 978.413 3593.17 976.367C3598.73 974.321 3603.79 971.246 3608.34 967.142L3614.75 886.081C3618.06 885.775 3622.04 885.848 3626.7 886.3C3631.44 886.759 3635.45 887.462 3638.74 888.408L3632.22 970.869C3631.86 975.379 3631.99 979.701 3632.6 983.834C3633.22 987.89 3634.68 991.166 3636.98 993.662C3636.19 995.779 3634.85 997.96 3632.95 1000.2C3631.05 1002.37 3629.09 1003.98 3627.05 1005.04C3622.01 1003.53 3618.01 1001.11 3615.07 997.766C3612.2 994.432 3610.16 990.551 3608.95 986.124C3603.51 990.611 3597.28 994.199 3590.26 996.887C3583.25 999.498 3576.01 1000.44 3568.56 999.719C3561.34 999.019 3555.57 996.775 3551.26 992.987C3547.03 989.129 3544.05 984.217 3542.33 978.252C3540.7 972.217 3540.16 965.623 3540.73 958.469L3545.03 904.117ZM3668 902.411C3668.71 900.286 3670.02 898.024 3671.94 895.623C3673.85 893.223 3675.78 891.491 3677.74 890.428C3683.24 892.214 3687.59 895.065 3690.8 898.981C3694.09 902.904 3696.33 907.666 3697.53 913.267C3700.71 907.621 3704.91 903.092 3710.1 899.678C3715.31 896.187 3721.79 894.818 3729.56 895.571C3731.65 895.774 3733.66 896.087 3735.58 896.508C3737.51 896.93 3739.58 897.444 3741.8 898.051C3741.54 901.317 3740.77 905.082 3739.5 909.346C3738.31 913.54 3736.53 917.168 3734.18 920.23C3732.66 919.691 3731.08 919.303 3729.46 919.067C3727.92 918.761 3726.37 918.494 3724.83 918.266C3718.54 917.656 3713.24 918.943 3708.92 922.129C3704.68 925.244 3701.17 929.056 3698.39 933.566L3692.37 1009.61C3689.06 1009.92 3685.04 1009.84 3680.3 1009.38C3675.65 1008.93 3671.67 1008.23 3668.38 1007.29L3674.71 927.273C3675.2 921.053 3674.68 915.869 3673.13 911.723C3671.58 907.577 3669.87 904.473 3668 902.411ZM3799.28 905.389C3802.09 904.487 3804.64 903.911 3806.93 903.663C3809.3 903.344 3811.53 903.287 3813.63 903.49C3819.76 904.085 3823.27 907.755 3824.14 914.5L3830.79 963.92C3831.77 971.38 3832.63 978.712 3833.39 985.916C3834.24 993.049 3834.87 998.87 3835.3 1003.38C3835.51 1004.73 3836.07 1005.45 3837.01 1005.54L3864.33 910.759C3866.15 910.543 3868.58 910.505 3871.62 910.643C3874.66 910.781 3876.99 910.929 3878.63 911.087C3880.41 911.26 3882.81 911.572 3885.83 912.021C3888.92 912.478 3891.31 912.983 3892.98 913.538L3904.36 1010.08C3904.56 1011.43 3905.13 1012.15 3906.06 1012.24C3908 1005.61 3909.89 999.016 3911.73 992.457C3913.67 985.827 3915.68 979.128 3917.78 972.358L3934.95 917.021C3936.3 916.838 3937.91 916.759 3939.78 916.784C3941.66 916.731 3943.5 916.792 3945.28 916.965C3947.15 917.146 3949.19 917.501 3951.42 918.03C3953.73 918.489 3955.63 919.183 3957.12 920.111L3957.83 921.473L3920.47 1031.85C3918.11 1032.02 3915.18 1031.97 3911.68 1031.71C3908.25 1031.53 3905.14 1031.31 3902.35 1031.04C3897.77 1030.59 3894.14 1029.5 3891.46 1027.75C3888.78 1026 3887.16 1022.24 3886.6 1016.46L3882.53 983.395C3881.85 977.139 3881.05 969.5 3880.12 960.477C3879.19 951.377 3878.25 942.588 3877.27 934.11L3876.23 934.008C3874.09 942.185 3871.78 950.619 3869.3 959.31C3866.81 968.001 3864.7 975.358 3862.97 981.38L3849.91 1024.89C3847.32 1025.03 3844.19 1025 3840.53 1024.81C3836.87 1024.61 3833.56 1024.36 3830.61 1024.08C3826.5 1023.68 3823.14 1022.57 3820.55 1020.75C3817.95 1018.93 3816.22 1015.16 3815.34 1009.43L3799.28 905.389ZM3963.69 1004.31C3964.4 995.449 3966.91 988.367 3971.24 983.067C3975.65 977.775 3981.3 974.092 3988.19 972.018C3995.17 969.874 4002.85 969.208 4011.23 970.021C4014.49 970.338 4018.06 970.801 4021.92 971.411C4025.87 971.95 4029.76 972.68 4033.6 973.601L4034.31 964.62C4034.89 957.311 4033.63 951.9 4030.55 948.389C4027.46 944.877 4022.93 942.831 4016.95 942.251C4011.05 941.679 4004.89 941.982 3998.46 943.16C3992.11 944.269 3985.81 945.734 3979.57 947.557C3977.78 945.425 3976.36 942.623 3975.3 939.152C3974.25 935.602 3973.77 932.265 3973.87 929.14C3980.69 926.981 3988.61 925.242 3997.63 923.923C4006.73 922.612 4015.24 922.34 4023.16 923.108C4034.57 924.215 4043.52 928.295 4050 935.349C4056.48 942.403 4059.2 952.617 4058.14 965.991L4054.36 1013.81C4054.01 1018.17 4054.1 1022.05 4054.61 1025.47C4055.2 1028.82 4056.77 1031.79 4059.3 1034.39C4058.43 1036.5 4057.04 1038.71 4055.14 1041.04C4053.24 1043.28 4051.27 1044.93 4049.23 1045.99C4044.49 1044.59 4040.71 1042.42 4037.89 1039.48C4035.15 1036.55 4033.15 1033.22 4031.88 1029.5C4027.36 1033.13 4022.03 1036.34 4015.86 1039.11C4009.7 1041.8 4002.82 1042.78 3995.21 1042.04C3987.52 1041.3 3981.25 1038.96 3976.4 1035.05C3971.63 1031.13 3968.2 1026.42 3966.14 1020.89C3964.07 1015.36 3963.26 1009.83 3963.69 1004.31ZM3987.7 1005C3987.32 1009.74 3988.36 1013.91 3990.81 1017.52C3993.27 1021.05 3997.02 1023.06 4002.07 1023.55C4006.42 1023.97 4011.13 1023.21 4016.21 1021.28C4021.3 1019.34 4026.08 1016.24 4030.56 1011.97L4032.31 989.93C4028.84 989.202 4025.29 988.584 4021.66 988.074C4018.1 987.573 4014.69 987.163 4011.43 986.847C4004.36 986.162 3998.75 987.419 3994.58 990.62C3990.5 993.828 3988.2 998.62 3987.7 1005ZM4141.92 1049.57C4137.57 1061.06 4133.01 1070.65 4128.26 1078.33C4123.58 1086.03 4117.9 1091.67 4111.2 1095.25C4104.5 1098.83 4095.99 1100.12 4085.66 1099.12C4082.01 1098.77 4078.01 1097.95 4073.65 1096.66C4069.37 1095.46 4066.05 1094.32 4063.71 1093.23C4063.7 1090.41 4064.34 1087.34 4065.62 1084.01C4066.97 1080.7 4068.5 1078.18 4070.2 1076.46C4072.1 1077.28 4074.65 1078.15 4077.86 1079.09C4081.07 1080.03 4084.19 1080.64 4087.22 1080.94C4095.06 1081.7 4101.2 1079.67 4105.65 1074.85C4110.18 1070.04 4114.11 1063.37 4117.45 1054.84L4118.48 1052.12C4113.68 1051.5 4109.91 1050.19 4107.17 1048.2C4104.44 1046.13 4102.52 1042.7 4101.42 1037.89L4078.97 932.988C4084.53 931.019 4089.48 930.246 4093.82 930.667C4096.7 930.946 4099.08 931.961 4100.98 933.712C4102.95 935.392 4104.32 938.385 4105.08 942.689L4116.67 997.878C4117.8 1003.39 4118.88 1009.49 4119.92 1016.17C4121.03 1022.86 4121.92 1028.47 4122.58 1033C4122.8 1034.12 4123.49 1034.74 4124.66 1034.85L4157.97 938.652C4159.47 938.484 4161.15 938.413 4163.03 938.438C4164.91 938.385 4166.67 938.438 4168.3 938.596C4170.47 938.807 4172.59 939.17 4174.67 939.684C4176.74 940.12 4178.73 940.744 4180.62 941.554L4181.32 943.033L4141.92 1049.57Z" fill="#2F5F5F"/>
<rect width="1851.15" height="1407.31" rx="100" transform="matrix(0.977622 -0.210369 0.20548 0.978661 -18 474.426)" fill="#40D1FF"/>
<rect x="435" y="464" width="1008" height="164" rx="50" transform="rotate(90 435 464)" fill="#6CB574"/>
<rect width="797.836" height="163.069" rx="50" transform="matrix(0.639423 0.768855 -0.763215 0.646145 519.457 810.501)" fill="#498888"/>
<path d="M185 514C185 486.386 207.386 464 235 464H957C984.614 464 1007 486.386 1007 514V628C1007 655.614 984.614 678 957 678H235C207.386 678 185 655.614 185 628V514Z" fill="#1F6CDE"/>
<rect width="541.748" height="990.791" rx="50" transform="matrix(1 0 -0.005727 0.999984 1330.67 449)" fill="#14666B"/>
<rect width="179.618" height="704.996" rx="50" transform="matrix(-0.684038 -0.729446 0.733352 -0.679849 489.866 1050.31)" fill="#40D1FF"/>
<rect x="1115.54" y="1467.11" width="1046" height="136.396" rx="35" transform="rotate(-90 1115.54 1467.11)" fill="#AE5DAB"/>
</svg>
