<svg width="2610" height="1673" viewBox="0 0 2610 1673" fill="none" xmlns="http://www.w3.org/2000/svg">
<path d="M1074.29 413.055C1088.76 356.971 1147.39 325.909 1202 345.393L2023 638.332C2029.16 640.528 2035.5 642.114 2041.94 643.065L2319.36 684.061C2389.34 694.403 2428.05 772.955 2393.48 834.5L2190.01 1196.82C2167.86 1236.25 2121.92 1255.1 2078.19 1242.7L1558.45 1095.32C1536.18 1089 1512.58 1090.66 1491.68 1100.01L1335.84 1169.69C1302.72 1184.5 1263.9 1179.62 1234.69 1156.98L1131.71 1077.14L995.961 980.251C961.465 955.63 945.498 912.079 956.019 871.312L1074.29 413.055Z" fill="#7BDFFF"/>
<path d="M1284.06 536.235C1280.46 549.255 1274.05 559.374 1264.84 566.591C1255.82 573.864 1245.14 577.437 1232.81 577.309L1258.84 677.612L1222.27 666.786L1196.52 560.976C1195.96 558.531 1195.92 556.448 1196.4 554.724C1210.69 558.953 1222.13 558.923 1230.74 554.634C1239.4 550.154 1245.64 541.021 1249.45 527.235C1252.63 515.747 1252.04 506.353 1247.67 499.053C1243.54 491.617 1235.48 486.123 1223.48 482.571C1217.57 480.823 1211.35 479.498 1204.79 478.594L1157.98 647.757L1124.54 637.862L1176.69 449.457C1199.59 454.578 1217.71 459.112 1231.04 463.059C1276.19 476.422 1293.86 500.814 1284.06 536.235ZM1381.28 670.036C1385.08 673.439 1386.13 678.204 1384.43 684.331C1382.53 691.224 1378.54 696.674 1372.49 700.682C1366.49 704.499 1359.49 706.676 1351.51 707.214C1343.48 707.944 1335.75 707.209 1328.32 705.01C1307.36 698.808 1293.72 687.416 1287.38 670.833C1281.1 654.059 1281.17 634.088 1287.58 610.921C1294.42 586.221 1305.36 567.915 1320.4 556.003C1335.69 543.956 1354.48 541.23 1376.77 547.827C1390.86 551.999 1401.17 559.088 1407.67 569.092C1414.23 578.905 1415.65 590.513 1411.95 603.916C1407.33 620.574 1398.29 630.534 1384.82 633.796C1371.53 637.114 1354.98 635.842 1335.17 629.978C1329.65 628.343 1324.46 626.601 1319.62 624.752C1316 640.047 1315.14 652.843 1317.03 663.138C1319.11 673.491 1325.87 680.358 1337.3 683.741C1345.68 686.222 1353.6 686.287 1361.05 683.935C1368.74 681.448 1375.49 676.815 1381.28 670.036ZM1367.66 562.844C1357.38 559.8 1348.63 563.114 1341.42 572.787C1334.26 582.269 1328.32 594.804 1323.59 610.392C1329.2 612.466 1333.34 613.898 1336 614.687C1360.01 621.792 1374.68 615.674 1380.04 596.336C1382.21 588.486 1382.3 581.469 1380.3 575.284C1378.54 568.964 1374.33 564.818 1367.66 562.844ZM1498.38 602.154C1479.33 596.516 1464.03 614.567 1452.48 656.307C1447.76 673.348 1446.04 687.754 1447.32 699.525C1448.84 711.161 1455.79 718.812 1468.17 722.477C1476.55 724.957 1484.31 724.87 1491.43 722.214C1498.8 719.423 1504.67 714.221 1509.04 706.608C1511.86 709.098 1513.64 711.594 1514.39 714.095C1515.38 716.46 1515.4 719.366 1514.45 722.813C1512.54 729.706 1508.56 735.156 1502.51 739.164C1496.69 743.037 1489.89 745.271 1482.1 745.865C1474.26 746.651 1466.62 745.944 1459.19 743.745C1438.24 737.543 1424.59 726.151 1418.26 709.569C1411.98 692.795 1412.04 672.824 1418.46 649.656C1425.29 624.956 1436.23 606.651 1451.28 594.738C1466.57 582.691 1485.26 579.937 1507.36 586.478C1520.31 590.312 1530.24 596.15 1537.13 603.992C1544.03 611.834 1545.94 621.307 1542.87 632.412C1541.07 638.922 1537.69 643.309 1532.74 645.571C1527.78 647.833 1521.88 647.95 1515.02 645.92C1512.92 645.3 1510.81 644.364 1508.68 643.113C1506.75 641.919 1505.25 640.645 1504.18 639.293C1506.97 635.149 1508.93 631.067 1510.04 627.046C1513.7 613.834 1509.81 605.537 1498.38 602.154ZM1631.45 623.207C1652.79 629.522 1666.67 641.19 1673.08 658.212C1679.56 675.043 1679.53 695.233 1673.01 718.784C1666.07 743.866 1655.61 762.313 1641.62 774.124C1627.69 785.744 1609.67 788.284 1587.58 781.743C1565.86 775.316 1551.89 763.619 1545.66 746.654C1539.62 729.745 1539.99 709.036 1546.78 684.528C1553.35 660.786 1563.82 643.066 1578.18 631.367C1592.55 619.669 1610.31 616.949 1631.45 623.207ZM1592.34 764.511C1604.16 768.007 1613.49 764.451 1620.34 753.842C1627.19 743.234 1633.19 728.644 1638.33 710.071C1643.04 693.03 1645.04 677.982 1644.33 664.927C1643.8 651.929 1637.92 643.766 1626.68 640.439C1607.82 634.858 1592.75 652.458 1581.46 693.241C1576.32 711.813 1573.85 727.447 1574.05 740.141C1574.43 752.892 1580.53 761.016 1592.34 764.511ZM1767.04 687.264C1758.85 684.84 1751.98 688.814 1746.43 699.186C1741.12 709.423 1736.35 722.201 1732.11 737.518L1711.6 811.617L1680.17 802.313L1720.71 655.84L1747.95 660.174L1742.23 686.445C1747.28 678.618 1753.83 673.203 1761.87 670.198C1769.97 667.002 1778.4 666.7 1787.16 669.294C1796.69 672.113 1803.45 677.116 1807.43 684.304C1811.61 691.548 1812.38 699.957 1809.73 709.53C1805.43 725.039 1795.86 730.595 1781 726.197C1776.05 724.731 1772.53 722.55 1770.44 719.655C1773.16 715.071 1775.01 710.961 1776.02 707.323C1778.99 696.601 1776 689.914 1767.04 687.264ZM1910.01 844.86C1907.41 854.242 1908.62 861.434 1913.62 866.437C1911.3 868.858 1908.41 870.383 1904.94 871.013C1901.65 871.699 1898.11 871.478 1894.3 870.35C1888.77 868.715 1884.63 865.83 1881.85 861.696C1879.14 857.369 1878.14 852.413 1878.86 846.826C1874.06 852.243 1867.78 855.563 1860.03 856.789C1852.4 858.262 1844.69 857.842 1836.88 855.531C1817.45 849.78 1805.42 838.14 1800.79 820.612C1796.16 803.084 1797.08 782.64 1803.54 759.281C1810.22 735.156 1820.66 717.531 1834.87 706.407C1849.27 695.339 1867.42 693.048 1889.33 699.532C1898.47 702.238 1906.41 705.935 1913.15 710.623L1927.7 658.065L1960.09 663.922L1910.01 844.86ZM1906.95 733.025C1899.83 724.496 1891.89 718.934 1883.13 716.341C1871.51 712.902 1862.35 716.199 1855.66 726.233C1848.97 736.267 1843.16 750.187 1838.23 767.994C1833.51 785.034 1831.55 800.302 1832.35 813.796C1833.21 827.099 1839.25 835.414 1850.49 838.741C1858.87 841.221 1866.03 839.923 1871.97 834.845C1877.97 829.575 1882.29 822.154 1884.94 812.58L1906.95 733.025ZM2123.16 910.431L2117.27 931.684L1993.54 895.064L1999.43 873.81L2050.86 889.034L2087.27 757.495C2069.92 762.096 2057.99 764.987 2051.48 766.167C2045.21 767.213 2040.17 767.172 2036.36 766.044C2026.08 762.999 2022.68 755.159 2026.18 742.522C2049.41 740.491 2081.69 734.092 2123 723.326L2130.87 730.628L2084.29 898.929L2123.16 910.431ZM2260.2 762.689C2284.2 769.794 2298.83 783.963 2304.08 805.197C2309.39 826.24 2308.01 851.313 2299.96 880.416C2291.74 910.094 2279.67 933.243 2263.73 949.863C2247.99 966.539 2228.21 971.354 2204.4 964.306C2180.58 957.258 2166.1 942.926 2160.96 921.309C2156.05 899.556 2157.68 873.937 2165.84 844.451C2174 814.965 2185.76 792.238 2201.1 776.271C2216.69 760.169 2236.38 755.642 2260.2 762.689ZM2209.96 944.202C2222.53 947.923 2232.83 943.1 2240.86 929.732C2248.89 916.365 2256.4 897.044 2263.4 871.77C2269.91 848.219 2273.12 828.452 2273.01 812.469C2273.14 796.35 2267.01 786.458 2254.63 782.794C2242.44 779.185 2232.3 784.16 2224.22 797.719C2216.14 811.279 2208.82 829.929 2202.25 853.671C2195.25 878.945 2191.64 899.422 2191.43 915.101C2191.4 930.837 2197.58 940.537 2209.96 944.202Z" fill="#2F5F5F"/>
<path d="M1119.23 729.772C1133.04 732.987 1145.11 736.173 1155.43 739.329C1185.5 748.517 1195.28 771.454 1184.78 808.14C1173.02 849.211 1150.74 864.731 1117.91 854.701C1108.27 851.756 1097.96 847.664 1086.98 842.427L1119.23 729.772ZM1121.38 842.588C1129.41 845.043 1136.08 844.883 1141.36 842.107C1146.65 839.332 1150.87 834.849 1154.01 828.659C1157.19 822.354 1160.21 814.182 1163.09 804.145C1166.92 790.763 1168.26 779.317 1167.11 769.809C1165.97 760.3 1160.52 754.055 1150.76 751.074C1146.52 749.777 1141.61 748.592 1136.05 747.521L1110.15 838.025C1114.08 839.98 1117.82 841.501 1121.38 842.588ZM1233.86 879.594C1230.53 882.966 1226.47 884.926 1221.7 885.474C1217 886.173 1212.02 885.716 1206.74 884.103C1198.82 881.683 1192.86 877.226 1188.85 870.733C1184.96 864.274 1184.12 857.18 1186.33 849.451C1191.68 830.761 1210.94 826.484 1244.11 836.619L1248.42 821.563C1250.07 815.795 1250.43 811.264 1249.5 807.969C1248.6 804.559 1245.75 802.117 1240.93 800.644C1236.91 799.417 1233.27 799.496 1230 800.881C1226.77 802.151 1224.61 804.69 1223.52 808.497C1222.82 810.919 1222.54 813.656 1222.66 816.705C1220.69 817.483 1218.22 817.416 1215.23 816.504C1211.1 815.242 1208.13 813.204 1206.31 810.391C1204.5 807.578 1204.15 804.21 1205.27 800.288C1206.86 794.75 1211.24 791.198 1218.43 789.631C1225.65 787.948 1234.43 788.685 1244.76 791.841C1252.33 794.155 1257.97 797.132 1261.67 800.772C1265.4 804.297 1267.51 808.705 1267.99 813.996C1268.62 819.207 1267.81 825.735 1265.57 833.579L1252.69 878.572C1251.07 884.225 1251.76 888.576 1254.76 891.624C1253.34 893.074 1251.59 893.98 1249.48 894.342C1247.5 894.739 1245.36 894.586 1243.06 893.885C1239.74 892.868 1237.25 891.104 1235.59 888.591C1233.97 885.964 1233.4 882.965 1233.86 879.594ZM1216.77 874.56C1221.82 876.103 1226.15 875.356 1229.77 872.321C1233.42 869.17 1236.06 864.71 1237.72 858.942L1241.63 845.271C1222.24 839.345 1210.75 842.611 1207.19 855.071C1205.87 859.685 1206.01 863.745 1207.63 867.25C1209.36 870.791 1212.41 873.227 1216.77 874.56ZM1283.54 815.924L1284.85 810.68C1290.61 810.181 1296.28 808.903 1301.86 806.845C1307.56 804.822 1312.61 802.224 1317.01 799.053L1322.35 800.684L1317.44 817.816L1333.28 822.655L1331.05 830.442L1314.87 825.498L1296.84 888.487C1295.85 891.948 1295.74 894.737 1296.5 896.853C1297.27 898.969 1298.96 900.679 1301.59 901.982C1300.25 904.46 1298.09 906.121 1295.11 906.965C1292.2 907.959 1289.14 907.965 1285.93 906.983C1276.63 904.143 1273.5 897.415 1276.54 886.802L1295.76 819.659L1283.54 815.924ZM1369.02 920.895C1365.69 924.267 1361.63 926.227 1356.86 926.775C1352.16 927.474 1347.18 927.017 1341.9 925.404C1333.98 922.984 1328.02 918.527 1324.01 912.034C1320.12 905.575 1319.28 898.481 1321.49 890.752C1326.84 872.062 1346.1 867.785 1379.27 877.92L1383.58 862.864C1385.23 857.096 1385.59 852.565 1384.66 849.27C1383.76 845.86 1380.91 843.418 1376.09 841.945C1372.07 840.718 1368.43 840.797 1365.16 842.182C1361.93 843.452 1359.76 845.991 1358.67 849.798C1357.98 852.221 1357.7 854.957 1357.82 858.006C1355.85 858.784 1353.38 858.717 1350.39 857.805C1346.26 856.543 1343.29 854.505 1341.47 851.692C1339.66 848.879 1339.31 845.511 1340.43 841.589C1342.02 836.051 1346.4 832.499 1353.59 830.932C1360.81 829.249 1369.59 829.986 1379.92 833.142C1387.49 835.456 1393.13 838.434 1396.83 842.073C1400.56 845.598 1402.67 850.006 1403.15 855.297C1403.78 860.508 1402.97 867.036 1400.73 874.88L1387.85 919.873C1386.23 925.526 1386.92 929.877 1389.91 932.925C1388.5 934.375 1386.74 935.281 1384.64 935.643C1382.66 936.04 1380.52 935.887 1378.22 935.186C1374.89 934.169 1372.4 932.405 1370.75 929.892C1369.13 927.265 1368.56 924.266 1369.02 920.895ZM1351.93 915.861C1356.98 917.404 1361.31 916.657 1364.93 913.622C1368.57 910.471 1371.22 906.011 1372.87 900.243L1376.79 886.572C1357.39 880.646 1345.91 883.912 1342.35 896.372C1341.03 900.986 1341.17 905.046 1342.79 908.551C1344.52 912.092 1347.57 914.528 1351.93 915.861ZM1522.97 880.621L1449.07 990.333L1430.78 982.298L1459.12 948.05L1450.51 945.42L1451.54 858.791L1471.16 864.787L1467.95 938.139L1505.07 875.15L1522.97 880.621ZM1567.15 890.355C1580 894.283 1588.32 901.404 1592.11 911.72C1595.93 921.92 1595.8 934.115 1591.74 948.305C1587.42 963.418 1581 974.504 1572.49 981.564C1564.01 988.508 1553.11 989.946 1539.8 985.878C1526.72 981.88 1518.34 974.741 1514.67 964.461C1511.11 954.216 1511.45 941.71 1515.68 926.943C1519.77 912.637 1526.19 901.99 1534.93 895C1543.67 888.011 1554.41 886.462 1567.15 890.355ZM1542.77 975.495C1549.89 977.669 1555.55 975.571 1559.74 969.2C1563.94 962.829 1567.63 954.048 1570.84 942.858C1573.78 932.59 1575.07 923.512 1574.7 915.623C1574.46 907.769 1570.95 902.807 1564.18 900.738C1552.81 897.266 1543.62 907.817 1536.58 932.39C1533.38 943.58 1531.8 953.01 1531.85 960.678C1532.02 968.382 1535.66 973.321 1542.77 975.495ZM1667.85 1005.44C1666.23 1011.09 1666.92 1015.44 1669.92 1018.49C1668.51 1019.94 1666.75 1020.84 1664.65 1021.2C1662.66 1021.6 1660.52 1021.45 1658.23 1020.75C1654.9 1019.73 1652.41 1017.97 1650.76 1015.45C1649.14 1012.83 1648.56 1009.83 1649.03 1006.46C1646.1 1009.7 1642.29 1011.68 1637.6 1012.37C1632.99 1013.22 1628.33 1012.93 1623.62 1011.49C1615.36 1008.97 1609.56 1005.25 1606.22 1000.34C1603.03 995.352 1601.64 989.532 1602.05 982.881C1602.49 976.115 1604.13 967.772 1606.97 957.85L1620.54 910.435L1639.48 916.221L1626.15 962.771C1624.14 969.808 1622.7 975.705 1621.84 980.459C1621.12 985.134 1621.45 989.437 1622.82 993.369C1624.19 997.3 1627.23 999.985 1631.93 1001.42C1636.98 1002.97 1641.32 1002.22 1644.93 999.184C1648.58 996.033 1651.23 991.574 1652.88 985.805L1670.12 925.584L1689.05 931.37L1667.85 1005.44ZM1740.32 957.763C1735.39 956.255 1731.22 958.619 1727.81 964.854C1724.55 971.009 1721.6 978.702 1718.96 987.931L1706.18 1032.58L1687.24 1026.79L1712.5 938.536L1728.94 941.299L1725.34 957.136C1728.43 952.436 1732.42 949.2 1737.29 947.428C1742.2 945.54 1747.29 945.403 1752.57 947.016C1758.31 948.769 1762.36 951.827 1764.73 956.19C1767.22 960.588 1767.64 965.671 1765.99 971.439C1763.31 980.784 1757.5 984.088 1748.55 981.353C1745.56 980.441 1743.45 979.105 1742.2 977.345C1743.87 974.591 1745.01 972.118 1745.64 969.926C1747.49 963.466 1745.72 959.411 1740.32 957.763ZM1918.27 1001.41L1869.25 1082.41L1845.84 1075.26L1850.03 1008.98L1819.16 1067.1L1795.75 1059.95L1799.15 965.013L1818.77 971.01L1812.49 1052.46L1850.1 980.583L1868.87 986.317L1862.59 1067.76L1900.2 995.89L1918.27 1001.41ZM1953.2 1099.4C1949.86 1102.78 1945.8 1104.74 1941.03 1105.28C1936.34 1105.98 1931.35 1105.53 1926.07 1103.91C1918.15 1101.49 1912.19 1097.04 1908.18 1090.54C1904.29 1084.08 1903.45 1076.99 1905.67 1069.26C1911.02 1050.57 1930.27 1046.29 1963.44 1056.43L1967.75 1041.37C1969.4 1035.6 1969.76 1031.07 1968.83 1027.78C1967.94 1024.37 1965.08 1021.93 1960.26 1020.45C1956.24 1019.23 1952.6 1019.31 1949.33 1020.69C1946.1 1021.96 1943.94 1024.5 1942.85 1028.31C1942.16 1030.73 1941.87 1033.47 1942 1036.51C1940.03 1037.29 1937.55 1037.23 1934.57 1036.31C1930.43 1035.05 1927.46 1033.01 1925.65 1030.2C1923.83 1027.39 1923.48 1024.02 1924.61 1020.1C1926.19 1014.56 1930.58 1011.01 1937.77 1009.44C1944.99 1007.76 1953.76 1008.49 1964.09 1011.65C1971.66 1013.97 1977.3 1016.94 1981 1020.58C1984.74 1024.11 1986.84 1028.51 1987.33 1033.81C1987.96 1039.02 1987.15 1045.54 1984.9 1053.39L1972.02 1098.38C1970.4 1104.03 1971.09 1108.39 1974.09 1111.43C1972.68 1112.88 1970.92 1113.79 1968.82 1114.15C1966.83 1114.55 1964.69 1114.4 1962.4 1113.69C1959.07 1112.68 1956.58 1110.91 1954.93 1108.4C1953.31 1105.77 1952.73 1102.77 1953.2 1099.4ZM1936.11 1094.37C1941.15 1095.91 1945.49 1095.17 1949.1 1092.13C1952.75 1088.98 1955.4 1084.52 1957.05 1078.75L1960.96 1065.08C1941.57 1059.15 1930.09 1062.42 1926.52 1074.88C1925.2 1079.5 1925.35 1083.56 1926.97 1087.06C1928.7 1090.6 1931.74 1093.04 1936.11 1094.37ZM2077.06 1049.93L2003.16 1159.65L1984.86 1151.61L2013.2 1117.36L2004.59 1114.73L2005.62 1028.1L2025.24 1034.1L2022.03 1107.45L2059.16 1044.46L2077.06 1049.93Z" fill="#2F5F5F"/>
<path d="M301.381 393.018C272.464 362.102 287.849 311.886 328.98 302.941L743.035 212.89L812.035 192.39L863.535 168.89L974.035 110.89L1064.54 53.8904V53.8904C1075.11 48.6045 1085.01 62.3694 1076.55 70.5994L958.732 185.292C956.28 187.678 954.189 190.408 952.524 193.397L951.09 195.968C942.836 210.777 941.793 228.586 948.254 244.398L955.247 261.515C956.433 264.416 958.042 267.129 960.022 269.566V269.566C972.175 284.524 994.683 285.43 1007.72 271.486L1026.04 251.89L1066.54 212.39L1123.54 155.89L1207.04 78.3901L1226.39 61.7449C1230.47 58.2377 1236.23 63.5651 1233.04 67.8901V67.8901L1220.54 82.3902L1174.54 139.39L1135.04 192.39L1107.04 232.89L1083.54 272.39L1069.04 302.89L1034.01 379.141C1031.04 385.622 1028.77 392.41 1027.25 399.388L922.217 882.555C914.409 918.47 927.1 955.952 955.237 980.081L1285.04 1262.89V1262.89C1342.85 1303.16 1308.87 1393.21 1239.14 1384.54L947.981 1348.37C937.418 1347.06 926.729 1347.43 916.317 1349.47L789.425 1374.35C782.518 1375.71 775.781 1377.79 769.326 1380.56L556.535 1471.89L365.713 1582.95C329.096 1604.26 288.497 1560.84 312.415 1525.94V1525.94C314.485 1522.92 316.122 1519.63 317.279 1516.15L398.033 1273.42C400.361 1266.42 401.899 1259.18 402.621 1251.83L445.819 811.781C446.627 803.553 446.404 795.246 445.158 787.051L426.035 661.39L414.535 607.39L396.683 547.192C394.261 539.024 390.807 531.187 386.404 523.872L360.535 480.89L307.084 400.235C305.388 397.676 303.48 395.262 301.381 393.018V393.018Z" fill="#40D1FF"/>
<path d="M685.535 844.89C688.244 838.402 697.651 839.968 698.187 846.996L701.035 884.39L701.25 886.031C703.862 905.987 712.254 924.682 725.349 939.72L743.755 960.857L867.259 1088.5L983.772 1204.67C996.33 1217.19 1013.57 1223.57 1031.08 1222.18L1068.97 1219.18C1078 1218.46 1086.12 1224.72 1087.93 1233.77V1233.77C1089.5 1241.61 1085.91 1249.58 1079.06 1253.47L1060.11 1264.25C1051.22 1269.31 1040.98 1271.32 1030.9 1269.99L1018.5 1268.37C998.251 1265.71 979.61 1255.73 965.952 1240.25L963.834 1237.84L613.942 919.633C605.216 911.697 610.356 896.938 622.035 896.39V896.39L631.024 896.39C635.018 896.39 638.999 895.916 642.887 894.978V894.978C648.61 893.596 654.067 891.222 659.009 887.964V887.964C668.43 881.755 675.633 872.582 679.512 861.84L680.035 860.39L685.535 844.89V844.89Z" fill="#43777A"/>
<path d="M584.921 416.975C585.963 421.641 586.436 426.417 586.331 431.2L569.438 1198.33C568.974 1219.4 575.179 1240.06 587.167 1257.36L602.614 1279.65C605.67 1284.07 608.365 1288.72 610.673 1293.56L619.947 1313.03L638.252 1352.33C638.866 1353.65 639.184 1355.08 639.183 1356.54V1356.54C639.18 1365.27 628.76 1369.81 622.387 1363.86L613.767 1355.82C612.717 1354.84 611.812 1353.71 611.081 1352.47L602.528 1338C588.916 1314.96 560.012 1306.06 535.725 1317.43L530.91 1319.69C529.111 1320.53 527.456 1321.65 526.007 1323.01L514.974 1333.36C507.17 1340.69 494.413 1335.19 494.413 1324.5V1324.5C494.413 1322.19 495.07 1319.92 496.307 1317.96L516.239 1286.43C526.37 1270.4 531.748 1251.84 531.748 1232.9L531.748 1230.74L531.748 1156.86L531.961 510.652L531.977 463.256V463.256C531.98 454.209 519.634 451.598 515.931 459.863L508.472 476.513L485.252 519.883C484.724 520.87 484.087 521.794 483.353 522.638V522.638C472.626 534.977 452.758 523.629 457.977 508.143L510.51 352.25C511.465 349.416 512.817 346.732 514.527 344.277V344.277C530.221 321.741 565.172 328.543 571.147 355.298L584.921 416.975Z" fill="#6CB574"/>
<path d="M889.535 730.39C898.064 778.513 860.803 822.89 811.869 822.89H688.283C666.244 822.89 646.049 810.857 635.623 791.515V791.515C629.711 780.544 627.369 767.983 628.924 755.57L642.535 646.89L642.535 404.828C642.535 370.138 667.388 340.256 701.535 333.89V333.89L725.535 325.89L740.872 321.903C747.298 320.232 753.547 317.927 759.526 315.023L803.035 293.89L855.488 269.277C863.694 265.427 872.786 263.904 881.766 264.875L887.171 265.459C915.444 268.515 933.553 296.836 924.535 323.89V323.89L884.295 506.618C882.462 514.939 881.698 523.453 882.02 531.953L889.535 730.39V730.39Z" fill="#3C5985"/>
<path d="M819.549 728.642C820.447 742.087 813.088 754.789 800.95 760.744V760.744C796.722 762.818 792.107 763.971 787.413 764.126L719.027 766.384C702.316 766.935 688.535 753.605 688.535 736.89V736.89L698.535 656.89L705.391 428.673C705.487 425.492 705.886 422.325 706.583 419.215L707.199 416.468C710.25 402.858 719.42 391.382 732.035 385.39V385.39L766.035 374.39L781.218 368.235C783.427 367.34 785.57 366.288 787.631 365.089L812.035 350.89L830.616 340.014C831.89 339.268 833.254 338.688 834.673 338.287L839.007 337.065C846.108 335.062 853.403 339.374 855.041 346.541V346.541C855.686 349.359 855.364 352.318 854.128 354.944L852.035 359.39L849.535 366.89L841.535 394.89L832.535 434.89L819.545 524.828C819.203 527.2 819.031 529.592 819.031 531.986L819.031 720.89L819.549 728.642Z" fill="#40D1FF"/>
</svg>
