<svg width="5059" height="2153" viewBox="0 0 5059 2153" fill="none" xmlns="http://www.w3.org/2000/svg">
<path d="M1310.61 556.495C1330.61 502.135 1392.05 477.077 1444.44 501.911L2232.12 875.29C2238.03 878.09 2244.18 880.3 2250.49 881.889L2522.44 950.356C2591.04 967.627 2621.71 1049.65 2581.18 1107.44L2342.58 1447.65C2316.61 1484.68 2269.02 1498.85 2226.74 1482.15L1724.29 1283.65C1702.77 1275.15 1679.12 1274.44 1657.39 1281.66L1495.38 1335.45C1460.94 1346.88 1422.81 1338.15 1396 1312.71L1301.5 1223L1176.09 1113.05C1144.22 1085.11 1132.68 1040.18 1147.22 1000.67L1310.61 556.495Z" fill="#7BDFFF"/>
<path d="M1507.05 699.988C1502.16 712.584 1494.78 722.012 1484.89 728.275C1475.19 734.612 1464.21 737.102 1451.96 735.745L1467.85 838.144L1432.54 823.723L1417.48 715.873C1417.17 713.385 1417.33 711.307 1417.98 709.64C1431.77 715.273 1443.17 716.385 1452.16 712.976C1461.22 709.382 1468.34 700.917 1473.51 687.581C1477.82 676.467 1478.17 667.06 1474.55 659.36C1471.19 651.55 1463.71 645.28 1452.12 640.548C1446.42 638.22 1440.36 636.279 1433.93 634.727L1370.47 798.376L1338.19 785.195L1408.87 602.931C1431.15 610.311 1448.72 616.63 1461.6 621.888C1505.19 639.688 1520.34 665.721 1507.05 699.988ZM1590.43 842.82C1593.87 846.585 1594.45 851.431 1592.15 857.358C1589.56 864.026 1585.06 869.052 1578.63 872.436C1572.28 875.635 1565.1 877.104 1557.11 876.843C1549.04 876.767 1541.42 875.265 1534.25 872.336C1514.02 864.074 1501.58 851.378 1496.93 834.246C1492.35 816.929 1494.41 797.064 1503.1 774.652C1512.37 750.758 1525.08 733.634 1541.24 723.282C1557.65 712.82 1576.62 711.983 1598.14 720.77C1611.75 726.328 1621.29 734.409 1626.77 745.012C1632.31 755.43 1632.57 767.123 1627.54 780.089C1621.29 796.203 1611.3 805.211 1597.57 807.113C1584.02 809.09 1567.68 806.173 1548.55 798.362C1543.22 796.184 1538.23 793.933 1533.6 791.61C1528.47 806.468 1526.34 819.114 1527.19 829.547C1528.23 840.055 1534.27 847.562 1545.3 852.069C1553.4 855.373 1561.27 856.227 1568.92 854.631C1576.82 852.924 1584 848.987 1590.43 842.82ZM1587.58 734.805C1577.65 730.749 1568.61 733.174 1560.47 742.08C1552.4 750.8 1545.24 762.679 1538.98 777.718C1544.36 780.341 1548.33 782.179 1550.91 783.23C1574.08 792.694 1589.3 788.071 1596.55 769.363C1599.49 761.769 1600.28 754.795 1598.91 748.442C1597.79 741.979 1594.02 737.433 1587.58 734.805ZM1713.72 786.958C1695.33 779.448 1678.31 795.882 1662.65 836.262C1656.25 852.747 1653.11 866.91 1653.2 878.749C1653.55 890.479 1659.71 898.785 1671.66 903.667C1679.75 906.971 1687.48 907.658 1694.83 905.726C1702.44 903.683 1708.8 899.093 1713.91 891.954C1716.46 894.713 1717.99 897.374 1718.49 899.937C1719.24 902.39 1718.97 905.284 1717.68 908.618C1715.09 915.286 1710.59 920.312 1704.16 923.696C1697.99 926.97 1691 928.514 1683.19 928.328C1675.31 928.328 1667.78 926.863 1660.61 923.934C1640.37 915.672 1627.93 902.976 1623.29 885.844C1618.71 868.527 1620.77 848.662 1629.46 826.25C1638.72 802.355 1651.44 785.232 1667.59 774.88C1684.01 764.418 1702.88 763.543 1724.22 772.255C1736.72 777.362 1746.02 784.162 1752.1 792.652C1758.18 801.143 1759.14 810.761 1754.97 821.504C1752.53 827.801 1748.73 831.829 1743.58 833.586C1738.42 835.343 1732.53 834.869 1725.91 832.165C1723.89 831.339 1721.88 830.198 1719.89 828.741C1718.08 827.359 1716.71 825.942 1715.79 824.49C1718.98 820.646 1721.33 816.778 1722.84 812.889C1727.8 800.108 1724.76 791.464 1713.72 786.958ZM1844.03 821.181C1864.63 829.593 1877.28 842.587 1881.96 860.165C1886.72 877.557 1884.69 897.644 1875.85 920.427C1866.44 944.692 1854.19 962.003 1839.1 972.36C1824.07 982.532 1805.89 983.262 1784.56 974.549C1763.59 965.987 1750.86 952.955 1746.35 935.453C1742.03 918.026 1744.47 897.458 1753.66 873.749C1762.57 850.781 1774.75 834.193 1790.21 823.986C1805.68 813.78 1823.62 812.844 1844.03 821.181ZM1791.02 957.879C1802.43 962.535 1812.07 959.928 1819.94 950.056C1827.82 940.184 1835.24 926.265 1842.21 908.297C1848.6 891.812 1852.09 877.039 1852.68 863.978C1853.46 850.991 1848.42 842.283 1837.57 837.852C1819.36 830.416 1802.61 846.425 1787.31 885.879C1780.34 903.846 1776.32 919.155 1775.25 931.805C1774.36 944.531 1779.62 953.222 1791.02 957.879ZM1972.56 898.445C1964.65 895.215 1957.41 898.484 1950.86 908.251C1944.56 917.908 1938.53 930.145 1932.79 944.963L1904.99 1016.65L1874.64 1004.25L1929.59 862.555L1956.26 869.585L1947.95 895.154C1953.75 887.871 1960.81 883.135 1969.11 880.948C1977.49 878.575 1985.91 879.117 1994.37 882.571C2003.57 886.327 2009.79 891.979 2013.04 899.529C2016.47 907.153 2016.4 915.597 2012.8 924.858C2006.99 939.861 1996.9 944.434 1982.56 938.576C1977.78 936.623 1974.49 934.102 1972.71 931.013C1975.86 926.723 1978.12 922.818 1979.49 919.299C1983.51 908.926 1981.2 901.975 1972.56 898.445ZM2099.09 1069.52C2095.57 1078.59 2096.05 1085.87 2100.53 1091.35C2097.98 1093.52 2094.95 1094.75 2091.43 1095.03C2088.1 1095.39 2084.59 1094.81 2080.91 1093.31C2075.58 1091.13 2071.74 1087.85 2069.39 1083.46C2067.12 1078.88 2066.62 1073.85 2067.9 1068.37C2062.58 1073.28 2056.01 1075.95 2048.16 1076.4C2040.43 1077.1 2032.8 1075.92 2025.26 1072.84C2006.5 1065.18 1995.69 1052.4 1992.83 1034.49C1989.97 1016.59 1992.92 996.341 2001.69 973.743C2010.74 950.404 2022.89 933.91 2038.13 924.258C2053.56 914.682 2071.86 914.213 2093.01 922.85C2101.84 926.455 2109.37 930.926 2115.61 936.263L2135.33 885.418L2166.97 894.476L2099.09 1069.52ZM2107.2 957.935C2100.97 948.738 2093.62 942.412 2085.16 938.957C2073.94 934.376 2064.5 936.743 2056.84 946.059C2049.18 955.375 2042.01 968.647 2035.33 985.873C2028.94 1002.36 2025.47 1017.35 2024.92 1030.86C2024.44 1044.18 2029.62 1053.06 2040.48 1057.49C2048.57 1060.79 2055.82 1060.22 2062.24 1055.76C2068.73 1051.11 2073.77 1044.16 2077.36 1034.9L2107.2 957.935ZM2304.63 1156.02L2296.66 1176.58L2177.2 1127.8L2185.17 1107.24L2234.83 1127.52L2284.18 1000.27C2266.45 1003.12 2254.3 1004.8 2247.7 1005.33C2241.36 1005.74 2236.35 1005.2 2232.67 1003.7C2222.74 999.643 2220.15 991.502 2224.89 979.277C2248.21 979.574 2280.96 976.427 2323.14 969.836L2330.25 977.887L2267.11 1140.7L2304.63 1156.02ZM2455.72 1022.69C2478.9 1032.15 2492.04 1047.71 2495.15 1069.36C2498.33 1090.83 2494.46 1115.64 2483.54 1143.8C2472.41 1172.51 2458.08 1194.33 2440.57 1209.28C2423.24 1224.3 2403.08 1227.12 2380.09 1217.73C2357.1 1208.35 2344.12 1192.64 2341.16 1170.62C2338.45 1148.49 2342.63 1123.16 2353.69 1094.63C2364.75 1066.11 2378.71 1044.67 2395.57 1030.31C2412.68 1015.84 2432.73 1013.3 2455.72 1022.69ZM2387.63 1198.29C2399.77 1203.24 2410.5 1199.47 2419.82 1186.97C2429.14 1174.47 2438.54 1156 2448.03 1131.55C2456.86 1108.76 2462.02 1089.41 2463.51 1073.5C2465.25 1057.47 2460.14 1047.02 2448.18 1042.14C2436.41 1037.33 2425.83 1041.27 2416.44 1053.96C2407.04 1066.64 2397.89 1084.47 2388.99 1107.44C2379.51 1131.89 2373.87 1151.9 2372.09 1167.48C2370.5 1183.14 2375.68 1193.4 2387.63 1198.29Z" fill="#2F5F5F"/>
<path d="M1323.74 876.116C1337.15 880.693 1348.84 885.066 1358.8 889.237C1387.8 901.378 1395.25 925.177 1381.14 960.633C1365.35 1000.33 1341.62 1013.54 1309.96 1000.29C1300.66 996.398 1290.81 991.299 1280.41 984.992L1323.74 876.116ZM1314.62 988.584C1322.37 991.828 1329.01 992.333 1334.55 990.099C1340.09 987.865 1344.73 983.825 1348.48 977.979C1352.27 972.022 1356.09 964.194 1359.95 954.494C1365.1 941.56 1367.58 930.305 1367.38 920.73C1367.19 911.154 1362.39 904.396 1352.98 900.457C1348.89 898.743 1344.13 897.075 1338.7 895.455L1303.89 982.923C1307.61 985.26 1311.19 987.147 1314.62 988.584ZM1422.85 1036.63C1419.19 1039.65 1414.96 1041.19 1410.16 1041.26C1405.42 1041.49 1400.5 1040.54 1395.41 1038.41C1387.77 1035.21 1382.28 1030.18 1378.95 1023.32C1375.72 1016.5 1375.59 1009.36 1378.56 1001.89C1385.75 983.829 1405.34 981.494 1437.33 994.887L1443.12 980.337C1445.34 974.762 1446.15 970.289 1445.55 966.918C1445 963.436 1442.4 960.721 1437.75 958.775C1433.88 957.153 1430.25 956.868 1426.86 957.921C1423.51 958.862 1421.11 961.172 1419.65 964.851C1418.71 967.193 1418.16 969.887 1417.98 972.934C1415.94 973.511 1413.48 973.198 1410.61 971.993C1406.62 970.324 1403.86 968 1402.34 965.02C1400.81 962.04 1400.8 958.655 1402.31 954.864C1404.44 949.512 1409.16 946.415 1416.47 945.572C1423.82 944.618 1432.48 946.227 1442.44 950.398C1449.75 953.456 1455.06 956.981 1458.38 960.972C1461.74 964.851 1463.4 969.447 1463.35 974.76C1463.46 980.008 1462 986.422 1458.99 994.004L1441.68 1037.49C1439.51 1042.95 1439.76 1047.35 1442.44 1050.68C1440.89 1051.98 1439.05 1052.71 1436.92 1052.86C1434.91 1053.06 1432.79 1052.69 1430.58 1051.76C1427.37 1050.42 1425.07 1048.42 1423.67 1045.75C1422.32 1042.98 1422.05 1039.93 1422.85 1036.63ZM1406.35 1029.91C1411.22 1031.95 1415.6 1031.64 1419.5 1028.98C1423.44 1026.21 1426.52 1022.04 1428.74 1016.46L1434 1003.25C1415.29 995.418 1403.54 997.523 1398.75 1009.56C1396.98 1014.02 1396.72 1018.08 1397.98 1021.73C1399.35 1025.42 1402.14 1028.15 1406.35 1029.91ZM1478.63 978.229L1480.46 973.143C1486.24 973.221 1492.01 972.515 1497.77 971.023C1503.64 969.579 1508.92 967.498 1513.62 964.782L1518.76 966.937L1512.18 983.494L1527.45 989.889L1524.46 997.415L1508.85 990.881L1484.62 1051.76C1483.29 1055.1 1482.9 1057.87 1483.45 1060.05C1484.01 1062.23 1485.52 1064.1 1488 1065.66C1486.43 1067.99 1484.11 1069.43 1481.06 1069.97C1478.07 1070.67 1475.02 1070.37 1471.92 1069.07C1462.96 1065.32 1460.51 1058.31 1464.6 1048.06L1490.42 983.165L1478.63 978.229ZM1553.21 1091.2C1549.56 1094.23 1545.33 1095.77 1540.52 1095.84C1535.78 1096.07 1530.87 1095.12 1525.77 1092.98C1518.14 1089.79 1512.65 1084.76 1509.31 1077.9C1506.08 1071.08 1505.95 1063.94 1508.93 1056.47C1516.11 1038.41 1535.7 1036.07 1567.69 1049.47L1573.48 1034.92C1575.7 1029.34 1576.51 1024.87 1575.92 1021.5C1575.37 1018.01 1572.77 1015.3 1568.12 1013.35C1564.24 1011.73 1560.61 1011.45 1557.22 1012.5C1553.88 1013.44 1551.47 1015.75 1550.01 1019.43C1549.08 1021.77 1548.52 1024.47 1548.34 1027.51C1546.31 1028.09 1543.85 1027.78 1540.97 1026.57C1536.98 1024.9 1534.23 1022.58 1532.7 1019.6C1531.18 1016.62 1531.17 1013.23 1532.68 1009.44C1534.81 1004.09 1539.53 1000.99 1546.83 1000.15C1554.19 999.197 1562.84 1000.8 1572.81 1004.98C1580.11 1008.03 1585.42 1011.56 1588.74 1015.55C1592.11 1019.43 1593.76 1024.03 1593.72 1029.34C1593.82 1034.59 1592.37 1041 1589.35 1048.58L1572.05 1092.07C1569.87 1097.53 1570.12 1101.93 1572.8 1105.26C1571.25 1106.56 1569.41 1107.29 1567.29 1107.44C1565.27 1107.63 1563.16 1107.27 1560.94 1106.34C1557.73 1105 1555.43 1102.99 1554.04 1100.33C1552.69 1097.55 1552.41 1094.51 1553.21 1091.2ZM1536.71 1084.49C1541.58 1086.53 1545.96 1086.22 1549.86 1083.56C1553.81 1080.79 1556.89 1076.61 1559.11 1071.04L1564.37 1057.83C1545.66 1050 1533.91 1052.1 1529.12 1064.14C1527.34 1068.6 1527.08 1072.66 1528.34 1076.31C1529.71 1080 1532.5 1082.73 1536.71 1084.49ZM1710.42 1066.49L1625.94 1168.28L1608.54 1158.46L1640.15 1127.21L1631.85 1123.74L1641.51 1037.64L1660.44 1045.57L1649.92 1118.23L1693.15 1059.26L1710.42 1066.49ZM1753.4 1080.58C1765.79 1085.77 1773.36 1093.69 1776.1 1104.33C1778.88 1114.86 1777.55 1126.98 1772.09 1140.7C1766.28 1155.3 1758.78 1165.69 1749.61 1171.87C1740.48 1177.93 1729.5 1178.28 1716.66 1172.9C1704.04 1167.62 1696.42 1159.68 1693.79 1149.08C1691.27 1138.53 1692.85 1126.12 1698.53 1111.85C1704.04 1098.03 1711.48 1088.07 1720.88 1081.99C1730.27 1075.91 1741.11 1075.44 1753.4 1080.58ZM1720.65 1162.87C1727.52 1165.74 1733.35 1164.21 1738.16 1158.29C1742.97 1152.37 1747.53 1144.01 1751.83 1133.19C1755.78 1123.27 1757.97 1114.36 1758.39 1106.48C1758.93 1098.64 1755.93 1093.35 1749.4 1090.62C1738.45 1086.03 1728.24 1095.61 1718.79 1119.36C1714.49 1130.17 1711.98 1139.4 1711.26 1147.03C1710.66 1154.71 1713.79 1159.99 1720.65 1162.87ZM1842.12 1205.13C1839.95 1210.6 1840.2 1214.99 1842.87 1218.33C1841.32 1219.63 1839.48 1220.35 1837.36 1220.51C1835.34 1220.7 1833.23 1220.34 1831.01 1219.41C1827.8 1218.07 1825.5 1216.06 1824.11 1213.4C1822.76 1210.62 1822.49 1207.58 1823.29 1204.27C1820.05 1207.21 1816.06 1208.79 1811.32 1209.02C1806.65 1209.41 1802.05 1208.65 1797.51 1206.75C1789.54 1203.41 1784.14 1199.13 1781.31 1193.92C1778.63 1188.63 1777.83 1182.7 1778.89 1176.13C1780.01 1169.44 1782.47 1161.3 1786.29 1151.71L1804.52 1105.89L1822.79 1113.53L1804.88 1158.52C1802.18 1165.32 1800.16 1171.05 1798.83 1175.69C1797.65 1180.27 1797.55 1184.59 1798.52 1188.64C1799.49 1192.68 1802.24 1195.66 1806.78 1197.56C1811.65 1199.6 1816.04 1199.29 1819.94 1196.63C1823.88 1193.86 1826.96 1189.68 1829.18 1184.11L1852.34 1125.91L1870.6 1133.55L1842.12 1205.13ZM1918.98 1164.93C1914.22 1162.94 1909.84 1164.87 1905.83 1170.74C1901.97 1176.54 1898.26 1183.89 1894.72 1192.81L1877.54 1235.96L1859.28 1228.32L1893.22 1143.02L1909.3 1147.41L1904.14 1162.81C1907.68 1158.44 1911.97 1155.62 1917 1154.34C1922.07 1152.95 1927.15 1153.33 1932.24 1155.46C1937.78 1157.77 1941.51 1161.22 1943.43 1165.8C1945.47 1170.42 1945.37 1175.52 1943.15 1181.1C1939.56 1190.13 1933.45 1192.84 1924.81 1189.22C1921.93 1188.02 1919.96 1186.48 1918.9 1184.6C1920.83 1182.03 1922.22 1179.68 1923.06 1177.56C1925.55 1171.32 1924.19 1167.11 1918.98 1164.93ZM2091.69 1226.11L2034.84 1301.82L2012.26 1292.36L2023.03 1226.83L1986.52 1281.59L1963.94 1272.13L1976.79 1178.01L1995.72 1185.94L1981.35 1266.35L2025.94 1198.59L2044.04 1206.16L2029.67 1286.58L2074.26 1218.81L2091.69 1226.11ZM2116.67 1327.1C2113.01 1330.12 2108.78 1331.67 2103.97 1331.74C2099.24 1331.96 2094.32 1331.01 2089.23 1328.88C2081.59 1325.68 2076.1 1320.65 2072.76 1313.79C2069.53 1306.98 2069.41 1299.83 2072.38 1292.36C2079.57 1274.3 2099.16 1271.97 2131.15 1285.36L2136.94 1270.81C2139.15 1265.23 2139.97 1260.76 2139.37 1257.39C2138.82 1253.91 2136.22 1251.19 2131.57 1249.25C2127.7 1247.63 2124.06 1247.34 2120.68 1248.39C2117.33 1249.33 2114.93 1251.64 2113.46 1255.32C2112.53 1257.67 2111.98 1260.36 2111.8 1263.41C2109.76 1263.98 2107.3 1263.67 2104.42 1262.47C2100.44 1260.8 2097.68 1258.47 2096.16 1255.49C2094.63 1252.51 2094.62 1249.13 2096.13 1245.34C2098.26 1239.98 2102.98 1236.89 2110.29 1236.04C2117.64 1235.09 2126.3 1236.7 2136.26 1240.87C2143.57 1243.93 2148.88 1247.45 2152.2 1251.44C2155.56 1255.32 2157.22 1259.92 2157.17 1265.23C2157.28 1270.48 2155.82 1276.89 2152.8 1284.48L2135.5 1327.96C2133.33 1333.42 2133.58 1337.82 2136.25 1341.15C2134.7 1342.45 2132.86 1343.18 2130.74 1343.33C2128.72 1343.53 2126.61 1343.16 2124.4 1342.24C2121.19 1340.89 2118.88 1338.89 2117.49 1336.22C2116.14 1333.45 2115.87 1330.41 2116.67 1327.1ZM2100.16 1320.38C2105.03 1322.42 2109.42 1322.11 2113.32 1319.45C2117.26 1316.68 2120.34 1312.51 2122.56 1306.93L2127.82 1293.72C2109.11 1285.89 2097.36 1288 2092.57 1300.04C2090.8 1304.5 2090.54 1308.55 2091.8 1312.2C2093.17 1315.9 2095.96 1318.62 2100.16 1320.38ZM2244.84 1290.23L2160.37 1392.03L2142.97 1382.2L2174.58 1350.96L2166.28 1347.48L2175.94 1261.38L2194.87 1269.31L2184.35 1341.97L2227.58 1283L2244.84 1290.23Z" fill="#2F5F5F"/>
<path d="M434.846 537.128C405.929 506.211 421.314 455.996 462.444 447.05L876.5 357L945.5 336.5L997 313L1063 283.5L1109.5 255L1198 198V198C1207.93 193.034 1217.13 206.111 1209.02 213.671L1102.5 313L1086.21 329.29C1081.48 334.018 1078.06 339.886 1076.27 346.336V346.336C1073.24 357.242 1075.1 368.968 1081.37 378.498L1091.21 393.461C1094.7 398.756 1099.29 403.242 1104.67 406.605L1107.13 408.146C1120.15 416.278 1136.65 416.122 1149.34 407.746V407.746C1152.1 405.923 1154.62 403.752 1156.82 401.287L1174.5 381.5L1198 356.5L1257 300L1340.5 222.5L1359.85 205.855C1363.93 202.347 1369.69 207.675 1366.5 212V212L1354 226.5L1305.5 283.5L1268.5 336.5L1245 377.5L1202.5 447L1167.48 523.251C1164.5 529.731 1162.24 536.519 1160.72 543.497L1055.68 1026.66C1047.87 1062.58 1060.56 1100.06 1088.7 1124.19L1418.5 1407V1407C1476.31 1447.27 1442.34 1537.32 1372.6 1528.65L1081.45 1492.48C1070.88 1491.17 1060.19 1491.54 1049.78 1493.58L922.89 1518.46C915.983 1519.82 909.246 1521.9 902.791 1524.67L690 1616L499.178 1727.06C462.56 1748.37 421.962 1704.95 445.88 1670.05V1670.05C447.95 1667.03 449.587 1663.74 450.744 1660.26L531.498 1417.53C533.825 1410.53 535.364 1403.29 536.086 1395.94L579.284 955.891C580.091 947.662 579.869 939.355 578.622 931.161L559.5 805.499L548 751.5L530.148 691.302C527.726 683.134 524.272 675.297 519.869 667.981L494 625L440.549 544.345C438.853 541.786 436.945 539.372 434.846 537.128V537.128Z" fill="#40D1FF"/>
<path d="M819 989C821.709 982.512 831.116 984.078 831.651 991.106L834.5 1028.5L834.715 1030.14C837.327 1050.1 845.719 1068.79 858.814 1083.83L877.22 1104.97L1000.72 1232.61L1117.24 1348.78C1129.79 1361.3 1147.03 1367.68 1164.54 1366.29L1202.44 1363.29C1211.46 1362.57 1219.59 1368.83 1221.4 1377.88C1222.96 1385.72 1219.37 1393.69 1212.52 1397.58L1193.58 1408.36C1184.69 1413.42 1174.45 1415.43 1164.36 1414.1L1151.97 1412.48C1131.72 1409.82 1113.08 1399.84 1099.42 1384.35L1097.3 1381.95L747.407 1063.74C738.681 1055.81 743.821 1041.05 755.5 1040.5L764.489 1040.5C768.483 1040.5 772.464 1040.03 776.352 1039.09C782.075 1037.71 787.531 1035.33 792.474 1032.07C801.895 1025.86 809.098 1016.69 812.976 1005.95L813.5 1004.5L819 989Z" fill="#1F6CDE"/>
<path d="M718.386 561.084C719.428 565.751 719.901 570.527 719.796 575.31L702.903 1342.44C702.439 1363.51 708.644 1384.17 720.632 1401.47L736.079 1423.76C739.135 1428.17 741.83 1432.83 744.138 1437.67L753.412 1457.14L771.717 1496.44C772.331 1497.76 772.648 1499.19 772.648 1500.65V1500.65C772.645 1509.38 762.225 1513.92 755.852 1507.97L747.232 1499.93C746.182 1498.95 745.277 1497.82 744.546 1496.58L735.993 1482.11C722.381 1459.07 693.477 1450.17 669.19 1461.54L664.374 1463.8C662.575 1464.64 660.921 1465.76 659.472 1467.12L648.439 1477.47C640.635 1484.8 627.878 1479.3 627.878 1468.61V1468.61C627.878 1466.3 628.534 1464.03 629.772 1462.07L649.704 1430.54C659.835 1414.51 665.213 1395.95 665.213 1377.01L665.213 1374.85L665.213 1300.97L665.426 654.761L665.442 607.366V607.366C665.445 598.319 653.098 595.708 649.396 603.972L641.937 620.623L618.717 663.993C618.189 664.979 617.552 665.903 616.817 666.748V666.748C606.091 679.087 586.223 667.739 591.442 652.253L643.975 496.359C644.93 493.526 646.282 490.842 647.991 488.387V488.387C663.686 465.85 698.637 472.653 704.612 499.407L718.386 561.084Z" fill="#6CB574"/>
<path d="M1023 874.5C1031.53 922.623 994.268 967 945.334 967H821.748C799.709 967 779.514 954.967 769.088 935.624V935.624C763.175 924.654 760.834 912.092 762.389 899.68L776 791L776 548.938C776 514.248 800.853 484.366 835 478V478L859 470L874.337 466.012C880.763 464.342 887.012 462.037 892.991 459.133L936.5 438L988.953 413.387C997.159 409.537 1006.25 408.014 1015.23 408.984L1020.64 409.569C1048.91 412.625 1067.02 440.946 1058 468V468L1017.76 650.727C1015.93 659.049 1015.16 667.563 1015.48 676.063L1023 874.5V874.5Z" fill="#7F2C81"/>
<path d="M953.014 872.751C953.912 886.197 946.553 898.899 934.415 904.853V904.853C930.187 906.927 925.572 908.08 920.877 908.235L852.492 910.493C835.781 911.045 822 897.715 822 881V881L832 801L838.856 572.783C838.952 569.602 839.351 566.435 840.048 563.325L840.664 560.578C843.714 546.967 852.885 535.492 865.5 529.5V529.5L899.5 518.5L914.683 512.345C916.892 511.449 919.034 510.398 921.096 509.199L945.5 495L964.081 484.123C965.355 483.378 966.719 482.797 968.138 482.397L972.472 481.174C979.573 479.172 986.868 483.483 988.506 490.651V490.651C989.15 493.468 988.829 496.427 987.593 499.054L985.5 503.5L983 511L975 539L966 579L953.01 668.938C952.668 671.31 952.496 673.702 952.496 676.095L952.496 865L953.014 872.751Z" fill="#40D1FF"/>
</svg>
