<svg width="2463" height="1957" viewBox="0 0 2463 1957" fill="none" xmlns="http://www.w3.org/2000/svg">
<path d="M134.846 341.128C105.929 310.211 121.314 259.996 162.444 251.05L576.5 161L645.5 140.5L697 117L763 87.4997L809.5 59L898 2.00001V2.00001C907.932 -2.96613 917.129 10.1107 909.022 17.671L802.5 117L786.21 133.29C781.482 138.018 778.06 143.886 776.268 150.336V150.336C773.239 161.242 775.098 172.968 781.368 182.498L791.212 197.461C794.696 202.756 799.288 207.242 804.669 210.605L807.134 212.146C820.146 220.278 836.649 220.122 849.34 211.746V211.746C852.102 209.923 854.615 207.752 856.818 205.287L874.5 185.5L898 160.5L957 104L1040.5 26.4998L1059.85 9.85454C1063.93 6.34729 1069.69 11.6747 1066.5 15.9997V15.9997L1054 30.4998L1005.5 87.4997L968.5 140.5L945 181.5L902.5 251L867.478 327.251C864.501 333.731 862.235 340.519 860.718 347.497L755.681 830.665C747.874 866.58 760.565 904.062 788.702 928.19L1118.5 1211V1211C1176.31 1251.27 1142.34 1341.32 1072.6 1332.65L781.445 1296.48C770.883 1295.17 760.194 1295.54 749.782 1297.58L622.89 1322.46C615.983 1323.82 609.246 1325.9 602.791 1328.67L390 1420L199.178 1531.06C162.56 1552.37 121.962 1508.95 145.88 1474.05V1474.05C147.95 1471.03 149.587 1467.74 150.744 1464.26L231.498 1221.53C233.825 1214.53 235.364 1207.29 236.086 1199.94L279.284 759.891C280.091 751.662 279.869 743.355 278.622 735.161L259.5 609.499L248 555.5L230.148 495.302C227.726 487.134 224.272 479.297 219.869 471.981L194 429L140.549 348.345C138.853 345.786 136.945 343.372 134.846 341.128V341.128Z" fill="#40D1FF"/>
<path d="M519 793C521.709 786.512 531.116 788.078 531.651 795.106L534.5 832.5L534.715 834.141C537.327 854.096 545.719 872.792 558.814 887.829L577.22 908.967L700.723 1036.61L817.236 1152.78C829.795 1165.3 847.033 1171.68 864.544 1170.29L902.436 1167.29C911.461 1166.57 919.588 1172.83 921.396 1181.88C922.96 1189.72 919.37 1197.69 912.525 1201.58L893.576 1212.36C884.687 1217.42 874.448 1219.43 864.363 1218.1L851.967 1216.48C831.716 1213.82 813.075 1203.84 799.417 1188.35L797.298 1185.95L447.407 867.742C438.681 859.807 443.821 845.048 455.5 844.5L464.489 844.5C468.483 844.5 472.464 844.026 476.352 843.088C482.075 841.706 487.531 839.332 492.474 836.074C501.895 829.865 509.098 820.691 512.976 809.95L513.5 808.5L519 793Z" fill="#1F6CDE"/>
<path d="M418.386 365.084C419.428 369.751 419.901 374.527 419.796 379.31L402.903 1146.44C402.439 1167.51 408.644 1188.17 420.632 1205.47L436.079 1227.76C439.135 1232.17 441.83 1236.83 444.138 1241.67L453.412 1261.14L471.717 1300.44C472.331 1301.76 472.648 1303.19 472.648 1304.65V1304.65C472.645 1313.38 462.225 1317.92 455.852 1311.97L447.232 1303.93C446.182 1302.95 445.277 1301.82 444.546 1300.58L435.993 1286.11C422.381 1263.07 393.477 1254.17 369.19 1265.54L364.374 1267.8C362.575 1268.64 360.921 1269.76 359.472 1271.12L348.439 1281.47C340.635 1288.8 327.878 1283.3 327.878 1272.61V1272.61C327.878 1270.3 328.534 1268.03 329.772 1266.07L349.704 1234.54C359.835 1218.51 365.213 1199.95 365.213 1181.01L365.213 1178.85L365.213 1104.97L365.426 458.761L365.442 411.366V411.366C365.445 402.319 353.098 399.708 349.396 407.972L341.937 424.623L318.717 467.993C318.189 468.979 317.552 469.903 316.817 470.748V470.748C306.091 483.087 286.223 471.739 291.442 456.253L343.975 300.359C344.93 297.526 346.282 294.842 347.991 292.387V292.387C363.686 269.85 398.637 276.653 404.612 303.407L418.386 365.084Z" fill="#6CB574"/>
<path d="M723 678.5C731.528 726.623 694.268 771 645.334 771H521.748C499.709 771 479.514 758.967 469.088 739.624V739.624C463.175 728.654 460.834 716.092 462.389 703.68L476 595L476 352.938C476 318.248 500.853 288.366 535 282V282L559 274L574.337 270.012C580.763 268.342 587.012 266.037 592.991 263.133L636.5 242L688.953 217.387C697.159 213.537 706.251 212.014 715.231 212.984L720.636 213.569C748.909 216.625 767.018 244.946 758 272V272L717.76 454.727C715.927 463.049 715.163 471.563 715.484 480.063L723 678.5V678.5Z" fill="#7F2C81"/>
<path d="M653.014 676.751C653.912 690.197 646.553 702.899 634.415 708.853V708.853C630.187 710.927 625.572 712.08 620.877 712.235L552.492 714.493C535.781 715.045 522 701.715 522 685V685L532 605L538.856 376.783C538.952 373.602 539.351 370.435 540.048 367.325L540.664 364.578C543.714 350.967 552.885 339.492 565.5 333.5V333.5L599.5 322.5L614.683 316.345C616.892 315.449 619.034 314.398 621.096 313.199L645.5 299L664.081 288.123C665.355 287.378 666.719 286.797 668.138 286.397L672.472 285.174C679.573 283.172 686.868 287.483 688.506 294.651V294.651C689.15 297.468 688.829 300.427 687.593 303.054L685.5 307.5L683 315L675 343L666 383L653.01 472.938C652.668 475.31 652.496 477.702 652.496 480.095L652.496 669L653.014 676.751Z" fill="#40D1FF"/>
</svg>
