<svg width="2372" height="1772" viewBox="0 0 2372 1772" fill="none" xmlns="http://www.w3.org/2000/svg">
<rect width="2140.86" height="1352.12" rx="50" transform="matrix(0.977622 -0.210369 0.20548 0.978661 0 448.919)" fill="#40D1FF"/>
<rect x="613.809" y="496" width="1008.18" height="249.809" rx="50" transform="rotate(90 613.809 496)" fill="#6CB574"/>
<rect width="843.066" height="266.293" rx="50" transform="matrix(0.639423 0.768855 -0.763215 0.646145 692.239 736)" fill="#498888"/>
<path d="M295 433C295 405.386 317.386 383 345 383H1135.99C1163.6 383 1185.99 405.386 1185.99 433V635.453C1185.99 663.068 1163.6 685.453 1135.99 685.453H345C317.386 685.453 295 663.068 295 635.453V433Z" fill="#1F6CDE"/>
<rect width="541.748" height="990.791" rx="50" transform="matrix(0.938706 -0.344719 0.339337 0.940665 1429.46 411.751)" fill="#14666B"/>
<rect width="275.079" height="704.996" rx="50" transform="matrix(0.938706 -0.344719 0.339337 0.940665 1568 623.825)" fill="#40D1FF"/>
<rect x="1568.47" y="1334.56" width="1013" height="136.396" rx="50" transform="rotate(-110 1568.47 1334.56)" fill="#AE5DAB"/>
</svg>
