<svg width="1520" height="1673" viewBox="0 0 1520 1673" fill="none" xmlns="http://www.w3.org/2000/svg">
<path d="M301.846 393.128C272.929 362.211 288.314 311.996 329.444 303.05L743.5 213L812.5 192.5L864 169L974.5 111L1065 54V54C1075.57 48.7141 1085.47 62.479 1077.02 70.709L959.197 185.401C956.745 187.788 954.654 190.518 952.988 193.506L951.555 196.078C943.301 210.887 942.258 228.696 948.718 244.507L955.712 261.625C956.898 264.525 958.507 267.239 960.487 269.676V269.676C972.64 284.634 995.148 285.54 1008.18 271.595L1026.5 252L1067 212.5L1124 156L1207.5 78.4998L1226.85 61.8545C1230.93 58.3473 1236.69 63.6747 1233.5 67.9997V67.9997L1221 82.4998L1175 139.5L1135.5 192.5L1107.5 233L1084 272.5L1069.5 303L1034.48 379.251C1031.5 385.731 1029.24 392.519 1027.72 399.497L922.681 882.665C914.874 918.58 927.565 956.062 955.702 980.19L1285.5 1263V1263C1343.31 1303.27 1309.34 1393.32 1239.6 1384.65L948.445 1348.48C937.883 1347.17 927.194 1347.54 916.782 1349.58L789.89 1374.46C782.983 1375.82 776.246 1377.9 769.791 1380.67L557 1472L366.178 1583.06C329.56 1604.37 288.962 1560.95 312.88 1526.05V1526.05C314.95 1523.03 316.587 1519.74 317.744 1516.26L398.498 1273.53C400.825 1266.53 402.364 1259.29 403.086 1251.94L446.284 811.891C447.091 803.662 446.869 795.355 445.622 787.161L426.5 661.499L415 607.5L397.148 547.302C394.726 539.134 391.272 531.297 386.869 523.981L361 481L307.549 400.345C305.853 397.786 303.945 395.372 301.846 393.128V393.128Z" fill="#40D1FF"/>
<path d="M686 845C688.709 838.512 698.116 840.078 698.651 847.106L701.5 884.5L701.715 886.141C704.327 906.097 712.719 924.792 725.814 939.83L744.22 960.967L867.723 1088.61L984.236 1204.78C996.795 1217.3 1014.03 1223.68 1031.54 1222.29L1069.44 1219.29C1078.46 1218.57 1086.59 1224.83 1088.4 1233.88V1233.88C1089.96 1241.72 1086.37 1249.69 1079.53 1253.58L1060.58 1264.36C1051.69 1269.42 1041.45 1271.43 1031.36 1270.1L1018.97 1268.48C998.716 1265.82 980.075 1255.84 966.417 1240.36L964.298 1237.95L614.407 919.743C605.681 911.807 610.821 897.048 622.5 896.5V896.5L631.489 896.5C635.483 896.5 639.464 896.026 643.352 895.088V895.088C649.075 893.707 654.531 891.332 659.474 888.074V888.074C668.895 881.865 676.098 872.692 679.976 861.95L680.5 860.5L686 845V845Z" fill="#43777A"/>
<path d="M585.386 417.084C586.428 421.751 586.901 426.527 586.796 431.31L569.903 1198.44C569.439 1219.51 575.644 1240.17 587.632 1257.47L603.079 1279.76C606.135 1284.17 608.83 1288.83 611.138 1293.67L620.412 1313.14L638.717 1352.44C639.331 1353.76 639.648 1355.19 639.648 1356.65V1356.65C639.645 1365.38 629.225 1369.92 622.852 1363.97L614.232 1355.93C613.182 1354.95 612.277 1353.82 611.546 1352.58L602.993 1338.11C589.381 1315.07 560.477 1306.17 536.19 1317.54L531.374 1319.8C529.575 1320.64 527.921 1321.76 526.472 1323.12L515.439 1333.47C507.635 1340.8 494.878 1335.3 494.878 1324.61V1324.61C494.878 1322.3 495.534 1320.03 496.772 1318.07L516.704 1286.54C526.835 1270.51 532.213 1251.95 532.213 1233.01L532.213 1230.85L532.213 1156.97L532.426 510.761L532.442 463.366V463.366C532.445 454.319 520.098 451.708 516.396 459.972L508.937 476.623L485.717 519.993C485.189 520.979 484.552 521.903 483.817 522.748V522.748C473.091 535.087 453.223 523.739 458.442 508.253L510.975 352.359C511.93 349.526 513.282 346.842 514.991 344.387V344.387C530.686 321.85 565.637 328.653 571.612 355.407L585.386 417.084Z" fill="#6CB574"/>
<path d="M890 730.5C898.528 778.623 861.268 823 812.334 823H688.748C666.709 823 646.514 810.967 636.088 791.624V791.624C630.175 780.654 627.834 768.092 629.389 755.68L643 647L643 404.938C643 370.248 667.853 340.366 702 334V334L726 326L741.337 322.012C747.763 320.342 754.012 318.037 759.991 315.133L803.5 294L855.953 269.387C864.159 265.537 873.251 264.014 882.231 264.984L887.636 265.569C915.909 268.625 934.018 296.946 925 324V324L884.76 506.727C882.927 515.049 882.163 523.563 882.484 532.063L890 730.5V730.5Z" fill="#3C5985"/>
<path d="M820.014 728.751C820.912 742.197 813.553 754.899 801.415 760.853V760.853C797.187 762.927 792.572 764.08 787.877 764.235L719.492 766.493C702.781 767.045 689 753.715 689 737V737L699 657L705.856 428.783C705.952 425.602 706.351 422.435 707.048 419.325L707.664 416.578C710.714 402.967 719.885 391.492 732.5 385.5V385.5L766.5 374.5L781.683 368.345C783.892 367.449 786.034 366.398 788.096 365.199L812.5 351L831.081 340.123C832.355 339.378 833.719 338.797 835.138 338.397L839.472 337.174C846.573 335.172 853.868 339.483 855.506 346.651V346.651C856.15 349.468 855.829 352.427 854.593 355.054L852.5 359.5L850 367L842 395L833 435L820.01 524.938C819.668 527.31 819.496 529.702 819.496 532.095L819.496 721L820.014 728.751Z" fill="#40D1FF"/>
</svg>
