<svg width="2372" height="1772" viewBox="0 0 2372 1772" fill="none" xmlns="http://www.w3.org/2000/svg">
<rect width="2140.86" height="1352.12" rx="50" transform="matrix(0.977622 -0.210369 0.20548 0.978661 0 448.919)" fill="#40D1FF"/>
<rect x="666.157" y="487.286" width="1008.18" height="249.809" rx="50" transform="rotate(90 666.157 487.286)" fill="#6CB574"/>
<rect width="803.594" height="259.093" rx="50" transform="matrix(0.639423 0.768855 -0.763215 0.646145 903.743 681)" fill="#498888"/>
<path d="M616.195 428.067C616.195 400.453 638.581 378.067 666.195 378.067H1457.18C1484.79 378.067 1507.18 400.453 1507.18 428.067V630.52C1507.18 658.134 1484.79 680.52 1457.18 680.52H666.195C638.581 680.52 616.195 658.134 616.195 630.52V428.067Z" fill="#1F6CDE"/>
<rect x="1134.68" y="1008.64" width="857.677" height="201.636" rx="50" transform="rotate(-180 1134.68 1008.64)" fill="#AE5DAB"/>
<rect width="491.807" height="1007.14" rx="50" transform="matrix(0.938706 -0.344719 0.339337 0.940665 1423.91 396.375)" fill="#14666B"/>
<rect width="275.079" height="704.996" rx="50" transform="matrix(0.938706 -0.344719 0.339337 0.940665 1568 623.825)" fill="#40D1FF"/>
</svg>
