<svg width="2429" height="1833" viewBox="0 0 2429 1833" fill="none" xmlns="http://www.w3.org/2000/svg">
<rect width="1851.15" height="1407.31" rx="100" transform="matrix(0.977622 -0.210369 0.20548 0.978661 -18 474.426)" fill="#40D1FF"/>
<rect x="435" y="464" width="1008" height="164" rx="50" transform="rotate(90 435 464)" fill="#6CB574"/>
<rect width="797.836" height="163.069" rx="50" transform="matrix(0.639423 0.768855 -0.763215 0.646145 519.457 810.501)" fill="#498888"/>
<path d="M185 514C185 486.386 207.386 464 235 464H957C984.614 464 1007 486.386 1007 514V628C1007 655.614 984.614 678 957 678H235C207.386 678 185 655.614 185 628V514Z" fill="#1F6CDE"/>
<rect width="541.748" height="990.791" rx="50" transform="matrix(1 0 -0.005727 0.999984 1330.67 449)" fill="#14666B"/>
<rect width="179.618" height="704.996" rx="50" transform="matrix(-0.684038 -0.729446 0.733352 -0.679849 489.866 1050.31)" fill="#40D1FF"/>
<rect x="1115.54" y="1467.11" width="1046" height="136.396" rx="35" transform="rotate(-90 1115.54 1467.11)" fill="#AE5DAB"/>
</svg>
