<svg width="2463" height="1981" viewBox="0 0 2463 1981" fill="none" xmlns="http://www.w3.org/2000/svg">
<path d="M139.274 416.151C104.983 356.74 138.903 281.873 205.976 268.931L585.081 195.782C594.642 193.937 603.868 190.706 612.466 186.191L658.489 162.02C665.472 158.353 671.985 153.868 677.892 148.659L719.722 111.772C722.56 109.27 725.742 107.184 729.174 105.575L950.45 1.8515C961.614 -3.38146 971.216 11.6898 961.667 19.4572V19.4572C961.223 19.8186 960.749 20.1425 960.251 20.4258L891.5 59.5001L796.22 121.737C772.801 137.034 775.328 172.129 800.734 184.411V184.411C811.812 189.767 824.802 189.187 835.241 182.872L916.572 133.666C917.855 132.89 919.071 132.01 920.208 131.034L948.822 106.47C965.638 92.0343 990.32 111.529 980.16 131.221V131.221C979.721 132.073 979.343 132.955 979.03 133.861L891.5 387.499L759.512 854.568C749.371 890.452 760.233 929.179 787.661 954.929L1003.84 1157.88C1065.61 1215.88 1032.83 1318.73 949.192 1329.34L265.661 1416.05C199.109 1424.49 142.622 1366.39 153.156 1300.34L254.623 664.08C257.799 644.162 254.834 623.692 246.119 605.372L235 582L139.274 416.151Z" fill="#40D1FF"/>
<path d="M501.736 839.874C528.795 820.319 566.461 830.888 579.609 861.726L656.259 1041.5C662.016 1055 670.614 1067.03 681.448 1076.74L797.261 1180.55C822.061 1202.77 819.832 1242.94 792.71 1262.55C769.527 1279.3 737.551 1273.81 721.289 1250.28L488.978 914.136C472.422 890.18 478.133 856.932 501.736 839.874Z" fill="#1F6CDE"/>
<path d="M392.044 319.585C428.496 320.125 457.081 350.915 454.92 387.312L409.643 1149.91C408.258 1173.23 415.08 1196.28 428.925 1215.06L434.347 1222.41C440.74 1231.08 445.686 1240.73 448.992 1250.99L453.75 1265.75L471.959 1304.08C472.645 1305.52 473 1307.1 473 1308.7V1308.7C473 1317.72 462.589 1322.78 455.519 1317.2L444.458 1308.47C442.623 1307.02 441.095 1305.22 439.966 1303.17L425.925 1277.7C413.931 1255.95 383.791 1253.1 367.828 1272.21L366.617 1273.66C365.874 1274.55 365.043 1275.36 364.136 1276.08V1276.08C351.792 1285.88 333.955 1275.08 336.955 1259.62L364.218 1119.11C365.071 1114.71 365.5 1110.25 365.5 1105.77L365.5 488.24C365.5 470.345 343.454 461.908 331.444 475.205V475.205C317.171 491.008 291.54 475.946 298.448 455.815L335.313 348.389C341.347 330.804 358.016 319.08 376.591 319.355L392.044 319.585Z" fill="#6CB574"/>
<path d="M716.782 698.653C728.472 758.669 682.191 814.739 620.963 814.739H519.77C498.951 814.739 479.873 803.372 470.024 785.1V785.1C463.558 773.102 461.642 759.148 464.627 745.787L489.494 634.5L509.251 440.281C510.08 432.125 511.909 424.094 514.695 416.37L525.299 386.967C530.047 373.802 537.493 361.757 547.158 351.61L576.67 320.621C593.329 303.13 615.696 292.189 639.665 289.808L678 286L697.585 285.562C730.792 284.82 753.788 318.15 741.384 349.042V349.042C740.061 352.337 739.119 355.769 738.574 359.272L716.188 503.354C715.397 508.444 715 513.584 715 518.73L715 680.163C715 686.373 715.597 692.565 716.782 698.653V698.653Z" fill="#7F2C81"/>
<path d="M652.496 681.277C652.496 702.954 638.526 722.26 617.903 729.086L610.25 731.618C573.225 743.871 537.296 711.085 546.153 673.127L550.5 654.5L572.56 423.16C573.621 412.041 578.37 401.57 586.05 393.415L619.211 358.208C623.608 353.54 629.441 350.48 635.767 349.523L658.728 346.05C670.5 344.269 679.617 356.007 675 367L664.5 406L652.496 500.5L652.496 681.277Z" fill="#40D1FF"/>
</svg>
